<svg id="Emblems" xmlns="http://www.w3.org/2000/svg" viewBox="0 0 163.38 160.62"><title>logo</title><path d="M143.77,116a1,1,0,0,0-1.3.6,48.09,48.09,0,0,1-44.95,31.3A47.57,47.57,0,0,1,63.2,133.39a1,1,0,0,0-1.45,1.41,49.61,49.61,0,0,0,35.77,15.08,50.13,50.13,0,0,0,46.85-32.63A1,1,0,0,0,143.77,116ZM134.5,69.47A51.48,51.48,0,0,1,140,77.94a1,1,0,0,0,.9.55,1,1,0,0,0,.46-.11,1,1,0,0,0,.44-1.35,53.36,53.36,0,0,0-5.77-8.85,50.59,50.59,0,0,0-5.58-5.76,1,1,0,0,0-1.33,1.52A49.15,49.15,0,0,1,134.5,69.47ZM97.52,52a47.47,47.47,0,0,1,28.33,9.27,1,1,0,0,0,1.2-1.63A50,50,0,0,0,51.4,80.75,1,1,0,0,0,52,82.07a.84.84,0,0,0,.38.08,1,1,0,0,0,.93-.62A47.82,47.82,0,0,1,97.52,52Z" transform="translate(-18.23 -19.94)" fill="#3b1712"/><path d="M65.27,97.4a9.63,9.63,0,0,1-1.17.3,8,8,0,0,1-1.51.15,5.79,5.79,0,0,1-4.48-1.95,3.2,3.2,0,0,1,.65-4.81,4.12,4.12,0,0,0,1.13-1.3l0,0-.23.18A17.2,17.2,0,0,0,57,92.86a38.42,38.42,0,0,0-3.38,5.53c0,.68,0,1.37,0,2a43.7,43.7,0,0,0,2.27,13.94,17.87,17.87,0,0,0,2.78-2.15,24,24,0,0,1,1.84-6.94A32.48,32.48,0,0,1,65.27,97.4ZM62.89,80.08c5.18,0,7.2,2.78,8,4.44a8.63,8.63,0,0,1,.53,4.87,13.52,13.52,0,0,1-.76,2.91,19.9,19.9,0,0,1,6.77-3.38h0a4.51,4.51,0,0,1,.72-.12,5.06,5.06,0,0,1,.67-.17,12.62,12.62,0,0,1,1.84-.15,8.94,8.94,0,0,1,7.71,4,9.77,9.77,0,0,1,.79,1.46l3.19-9.2c2.62-7.39,7.35-11.76,14-13a10.24,10.24,0,0,1,2-.19,9.13,9.13,0,0,1,3.18.56,7.2,7.2,0,0,1,1.05.49,16.92,16.92,0,0,1,7.59-3.43,11.16,11.16,0,0,1,2-.2,8.26,8.26,0,0,1,4.8,1.44A6.46,6.46,0,0,1,127.35,81a17.65,17.65,0,0,1,4.83-1.7,18,18,0,0,1,3.26-.34h.1a43.81,43.81,0,0,0-77.26,1.74c.31-.07.61-.15.92-.2A20.36,20.36,0,0,1,62.89,80.08Zm73.61,28.49a6.65,6.65,0,0,1-1.45-1.4,22.27,22.27,0,0,1-2.24,2.24,19.22,19.22,0,0,1-9.36,4.49,16.3,16.3,0,0,1-3.07.31,9.28,9.28,0,0,1-5.52-1.6,7.39,7.39,0,0,1-3-6.09l-4.46,12.56a20.58,20.58,0,0,1-6.45,9.59,17.16,17.16,0,0,1-7.6,3.41,13.42,13.42,0,0,1-2.44.24,7.67,7.67,0,0,1-3.92-1,16.83,16.83,0,0,1-7.41,3.3,10.83,10.83,0,0,1-2,.19,8.35,8.35,0,0,1-4.81-1.45A6.4,6.4,0,0,1,70,126.91a7.34,7.34,0,0,1,1-2.7l-.41.11a12.73,12.73,0,0,1-2.47.27A9,9,0,0,1,61.42,122a9.66,9.66,0,0,1-.87-1c-.39.38-.82.77-1.27,1.16A43.81,43.81,0,0,0,140.14,110,8.67,8.67,0,0,1,136.5,108.57Z" transform="translate(-18.23 -19.94)" fill="#bf9161"/><path d="M145.78,95.76a22.22,22.22,0,0,0,9.63-5.16,14.13,14.13,0,0,0,5-8.43,3.67,3.67,0,0,0-.87-3.41q-1.22-1.12-5.13-.4a14.82,14.82,0,0,0-4.78,1.85,23,23,0,0,0-7.75,7.43,30.72,30.72,0,0,0-5,12.32c-.43,3,.05,5,1.47,6s3.44,1.26,6.09.76c5.5-1,10.49-6.26,12.73-10.63a50.65,50.65,0,0,1-5.29,3.53,10.65,10.65,0,0,1-3.54,1.49q-3.58.67-2.94-3.72A10.84,10.84,0,0,1,145.78,95.76Zm3.18-8c2.21-4.14,4.22-6.4,6-6.81.94-.17,1.31.38,1.13,1.65a12.49,12.49,0,0,1-3.41,6.71,12,12,0,0,1-6.16,3.83A44.37,44.37,0,0,1,149,87.78Zm-22,17.88a3.37,3.37,0,0,1-2.74-.33c-.6-.45-.77-1.58-.5-3.38.06-.42.21-1.13.45-2.15a22.18,22.18,0,0,0,9.61-5.17q4.37-3.9,5-8.42a3.68,3.68,0,0,0-.87-3.42c-.8-.74-2.52-.87-5.13-.39A14.91,14.91,0,0,0,128,84.25a22.84,22.84,0,0,0-7.74,7.43,30.72,30.72,0,0,0-5,12.32q-.66,4.5,1.46,6t6.15.75a16,16,0,0,0,7.92-3.83c2-1.6,4.46-5,4.62-6a32.7,32.7,0,0,1-2.79,2.34A13.8,13.8,0,0,1,126.93,105.66Zm1.9-16.47c1.61-2.49,3.12-3.88,4.5-4.17.94-.18,1.32.37,1.13,1.64a12.25,12.25,0,0,1-3.37,6.61A12.47,12.47,0,0,1,125,97.19,35.66,35.66,0,0,1,128.83,89.19ZM121.41,85l-5.66,1,1.66-4.53c1.09-2.92,2.63-4.56,4.64-4.94a1.82,1.82,0,0,1,1.25.21c.39.22,1.41,1.76.13,2.68,0,0,2.59-.74,3.13-2.7A3.24,3.24,0,0,0,125.15,73a5.7,5.7,0,0,0-4.44-.73,13.76,13.76,0,0,0-8.21,4.77,3.52,3.52,0,0,0-2.13-2,6.34,6.34,0,0,0-3.43-.22q-8.28,1.55-11.61,10.91L82.7,122.22a10.11,10.11,0,0,1-2,3.53A6.3,6.3,0,0,1,77.86,127c-3.27.93-3.2-1.63-1.22-3.85-2.47,1.55-3.29,2.79-3.5,4.23a3.24,3.24,0,0,0,1.48,3.38,5.65,5.65,0,0,0,4.41.75,13.45,13.45,0,0,0,8.16-4.77q1,3.06,5.62,2.2A14,14,0,0,0,99,126.16a17.31,17.31,0,0,0,5.43-8.15L115,88.23a16.9,16.9,0,0,0,4.53-1.31A6.89,6.89,0,0,0,121.41,85ZM96.15,119.71a9.8,9.8,0,0,1-2,3.53,4,4,0,0,1-2,1.22c-1.71.32-2.76.18-3.13-.44a28.73,28.73,0,0,0,1.55-3.43L101.2,90.81l5.6-1ZM110,80.4a8.3,8.3,0,0,1-.31,1.37l-2.11,5.8-5.6,1,1.65-4.53q1.64-4.38,4.65-4.94a1.79,1.79,0,0,1,1.24.21A.94.94,0,0,1,110,80.4ZM77,98.74c2.35-4,1.88-7,1.14-6.72-5.53,1.43-11.75,7.38-14.77,14.52a19.56,19.56,0,0,0-1.68,7.09,19.56,19.56,0,0,1-10.93,6.14q-3.59.67-4.76-1.16c-.78-1.22-.93-3.4-.48-6.54a47,47,0,0,1,3.19-10.82A46.44,46.44,0,0,1,54.42,91a20.2,20.2,0,0,1,3.21-3.47A7.31,7.31,0,0,1,61,85.8c1.15-.22,1.94,0,2.37.5a2.81,2.81,0,0,1,.44,2.23,7.74,7.74,0,0,1-1.2,3,7.45,7.45,0,0,1-2.09,2.28,3,3,0,0,0,3,.77q4-.73,4.69-5.63a5.53,5.53,0,0,0-.28-3.09q-1.56-3.45-8.13-2.22A21.41,21.41,0,0,0,50,88.29a37.07,37.07,0,0,0-9.77,13.19A48.62,48.62,0,0,0,36,115.18q-1,6.63,1.54,9.08t8.78,1.33l.16,0a24.13,24.13,0,0,0,7.24-3.22c6.95-4.77,7.92-8.15,8-8.65-.08,4.58,2.19,7.7,6.31,7.7a9.69,9.69,0,0,0,1.83-.21c-2.68-3.15-1.75-8.1-.1-11.44S75.07,102.06,77,98.74Zm8.2,7.8c3.48-8.2,1.4-14.85-4.63-14.85a9,9,0,0,0-1.36.11c1.87,1.44,1.44,4.79.78,7.41-.85,3.38-4.24,9.2-7,13.8-2.29,3.75-2.59,6.41-2.12,7.93C76.3,119.33,82.3,113.5,85.24,106.54Z" transform="translate(-18.23 -19.94)" fill="#3b1712"/><path d="M74.26,42.43l-.11.1c.18.11.37.22.39.49s-.23.36-.2.7c0,.06,0,.1,0,.12s0,0,0,0a.7.7,0,0,1,.59.35h0s.08,0,.12.08a.87.87,0,0,0-.11.18.55.55,0,0,1-.11.27c-.11.48,0,.95-.43,1.09.65.71.82-.34,1.39.08-.51.26-.57.11-.7.78l.72.42c.09-.23-.24-.34-.44-.49.14-.31.31-.5.53-.53L75,43.94c-.28.16-.53-.4-.29-.68L74,41.63C73.88,42,73.67,42.22,74.26,42.43Zm0,3.31a1.23,1.23,0,0,0,0-.47.49.49,0,0,1-.13.12Zm-4.8,1-.15-.28c-.06.07-.07.17,0,.34A.41.41,0,0,1,69.49,46.72Zm5.89.4a.87.87,0,0,0-.48.11l.08.19s0,0,0,0l.36.2C75.4,47.42,75.27,47.3,75.38,47.12Zm-6.72-.76a2.36,2.36,0,0,1-.58.32l.31.59A1.29,1.29,0,0,0,68.66,46.36Zm-.33,108.57a1,1,0,0,1-.57-.18l-.08.14c.18.56-.57.57-.08,1.3.16.12.4.21.57.34l.25-.47a.09.09,0,0,1,0-.08.06.06,0,0,1,.08,0l.94-1.74c-.49-.44.77-.62,0-.65,0-.36.18-.26.38-.13l1.56-2.92a1.22,1.22,0,0,1-.66-.93,1,1,0,0,0,1.17,0l.35-.66c-.28-.48-.37.33-.78.24-.25-.8.28-.74.5-.94l-.61-.32a0,0,0,0,1,0,0h0l-.4.77c.21,0,.14.17,0,.2s-.1,0-.13,0l-.53,1s0,0,.08,0,0,.2-.19.2l-1.15,2.19a.53.53,0,0,1,.14.29,2.05,2.05,0,0,1-.34.1l-.26.49.11,0,.16.59a1.09,1.09,0,0,1-.47-.19l-.51,1C68.07,154.58,68.29,154.59,68.33,154.93Zm2.42-4.51c.32,0,0,.18.11.4A.21.21,0,0,1,70.75,150.42Zm-1.6,2.79c-.08.13-.29-.08-.25-.15S69.19,153.14,69.15,153.21Zm0,.85.11.4-.4.11-.1-.4ZM73.74,44.32h0l.12.3C73.86,44.47,73.9,44.29,73.74,44.32Zm-5.3,124.2-.17.4c.17.16.45.12.67.19C68.75,168.75,68.46,168.68,68.44,168.52Zm1.66-2.29c0-.52-.25-.53-.5-.57l-.24.59A.83.83,0,0,0,70.1,166.23Zm0-115.7.45.85a1.32,1.32,0,0,1,.46.26.43.43,0,0,0,0,.55c.36-.21.73-.4,1.1-.6l-.47-.86a1.32,1.32,0,0,0-.14.41c-.46-.09-.46-.78-.16-1L71,49.54v.39c-.13.11-.36.1-.49.2S70.23,50.37,70.12,50.53Zm.49,113.63a1,1,0,0,0-.34-.15l-.11.27A1.22,1.22,0,0,0,70.61,164.16ZM69.88,47.43l-.22-.4c-.09.25-.2.53,0,.59A.64.64,0,0,0,69.88,47.43Zm.66,1.21-.56.63a8,8,0,0,0,.93,0ZM73.11,157l-.2.51.58-.16A.42.42,0,0,0,73.11,157ZM69.7,49.58l-.06.06,0,0Zm-.5,117.31c0,.08.18.28.26.15S69.28,166.77,69.2,166.89ZM71.7,150Zm-3.17,18.33.14-.17H68.6ZM56.12,38.71a.76.76,0,0,0,.31.18,4.07,4.07,0,0,0,.7-.4l-.4-.6h-.2a1,1,0,0,0,0-.22v0a3.37,3.37,0,0,1-.55,0,3,3,0,0,1-.4.71L56,39C56.05,38.87,56.09,38.81,56.12,38.71Zm3,5,.26.4a1.42,1.42,0,0,0,.2-.3l-.43-.13ZM57.75,39.4c-.12,0-.21,0-.19.28a1.32,1.32,0,0,0,.26-.18Zm-2.54,95.06-.67.15-8.45,7.06a.42.42,0,0,1,.31,0c.12.45-.39.29-.41.62-.26,0-.26-.24-.15-.4l-.49.4a.59.59,0,0,0-.07.82.58.58,0,0,0,.44.21.55.55,0,0,0,.37-.14l.34-.27h0c0-.09.1-.18.16-.11l3.6-2.95h0l5.66-4.63Zm-7.77,6.37c-.11-.11.15-.26.2-.21S47.5,140.89,47.44,140.83Zm1.65-.41c-.11-.11.15-.27.21-.21S49.15,140.47,49.09,140.42Zm1.68-2.16c.08-.13.29.07.25.14S50.73,138.33,50.77,138.26Zm1.63-1.35c-.11-.11.15-.27.21-.21S52.46,137,52.4,136.91Zm.41-.21c-.11-.11.15-.27.21-.21S52.87,136.75,52.81,136.7ZM55.2,37.43s-.06,0-.09,0H55l.1.16S55.16,37.48,55.2,37.43Zm3.61,4.06a.53.53,0,0,1-.26-.25,1.73,1.73,0,0,0-.29.65,1.21,1.21,0,0,1,.34-.07A2.3,2.3,0,0,1,58.81,41.49Zm.36,0H59.1l-.09.1a.66.66,0,0,1,.26,0Zm-.79,1a1.12,1.12,0,0,0,0-.32h-.14a1.16,1.16,0,0,0,0,.18Zm-.29-2.27c0-.07-.32-.07-.28.08S58.13,40.43,58.09,40.28Zm-1.42-.83-.23.15.2.3a.42.42,0,0,1,.51-.36c-.06.28-.08.59-.26.74h0a1.23,1.23,0,0,1,.61-.58.55.55,0,0,1-.32-.33A.93.93,0,0,1,56.67,39.45ZM67,158.06a.24.24,0,0,1,.26.11l.38-.71C67.24,157.53,67,157.71,67,158.06ZM49.13,74.62a.61.61,0,0,0-.25-.29.66.66,0,0,0-.41.37L49,75C49,74.85,49.07,74.74,49.13,74.62Zm.58-21.85ZM48.42,73.22c-.08.11-.25.14-.38.2a.8.8,0,0,0,.69,0Zm2.38,72.5-.32.32c.17-.07.45-.09.63-.17A1.27,1.27,0,0,0,50.8,145.72Zm2.34-2.37-.62.63a1.74,1.74,0,0,0,.26.15A1,1,0,0,0,53.14,143.35ZM45.05,58l.69.57c0-.29.14-.58.46-.39,0,.28-.14.39-.19.61l1.06.87c.06,0,.13-.06.16,0s0,.11,0,.16l2.86,2.35c.15-.2.33-.24.48-.4.27.2.24.48,0,.81l.56.46.27-.08c.42.18.65.55,1,.81.39,0,.4-.41.6-.6a.63.63,0,0,1,.13-.11L53,62.86c-.06,0-.13.07-.16,0s0-.1,0-.14l-4.6-3.7,0,.09c-.23.2-.2,0-.11-.22l-1.26-1a.83.83,0,0,0,0,.23c-.36.07-.39-.16-.42-.42a1.84,1.84,0,0,1-1.51,0A.6.6,0,0,0,45.05,58Zm-1.52,13.9a.78.78,0,0,0,.28.11c.13-.15.3-.1.48-.09a1,1,0,0,0-.08.14l-.1,0a.28.28,0,0,0,0,.54l.25.06c.37.75,1.39,1.3,2,.51a.67.67,0,0,0,0-.67.83.83,0,0,0-.74-.41c-.18,0-.39-.32-.6-.41a.56.56,0,0,0-.57,0,.65.65,0,0,0,0-.14h-.94C43.52,71.67,43.52,71.77,43.53,71.87Zm.39-.7h.13a.47.47,0,0,1,0-.1A.31.31,0,0,0,43.92,71.17Zm1.24-13.85s-.31.1-.2.21S45.27,57.43,45.16,57.32Zm19.33-5.53c.12-.12.21-.23.08-.39l-.26.12ZM63.32,50a2.15,2.15,0,0,0,.18-.24,1.29,1.29,0,0,1-.16-.17.83.83,0,0,0,0,.28h-.12Zm1.32-.43-.12-.17a1.72,1.72,0,0,1-.25.37l0,0A1.24,1.24,0,0,1,64.64,49.58Zm-4-4.66c0,.13-.07.26-.11.39a.85.85,0,0,1,.28.1c.16-.27.45-.57.44-.79l-.07-.11a.63.63,0,0,1-.13.2.47.47,0,0,1-.17,0c-.4.26-.75,0-1.11-.11,0,0,0,0,0,.05l.33.5A.91.91,0,0,1,60.67,44.92Zm7.08,9.26-1.66-2.45a1.17,1.17,0,0,1-.88-.2,3.79,3.79,0,0,1-.16,1.12L66.57,55C67,54.69,67.35,54.43,67.75,54.18Zm-1-.34c.24-.21.15.11.37.21A.22.22,0,0,1,66.74,53.84Zm1,91.84s0,0,0,.07l0,0Zm-.32-100.3c.15,0,.32.16.41,0-.15,0-.32-.16-.43,0ZM65.94,43c.09.09.17.21.27.3s0,.3,0,.55a.59.59,0,1,0,1-.42c-.26-.25-.94-.1-.78-.68a1.2,1.2,0,0,0-.14-1c-.1-.21-.16-.46-.28-.66l.32,0-.14-.27-.43.05c-.4-.18-.94.21-.64.66S65.49,42.55,65.94,43Zm1.11,1.8.16.29c.15-.13.22-.31.07-.44A.83.83,0,0,1,67.05,44.76Zm-5.2,3,1.07,1.62a1.14,1.14,0,0,1,.23-.57c.15,0,.19.07.21.19a.8.8,0,0,0,.48.25c.09-.17.18-.32.26-.5l-.13-.2a.22.22,0,0,1-.16,0,.75.75,0,0,0,.07-.12L63.56,48c-.05.32-.08.66-.49.64-.44-.46,0-.38.23-.82-.39-.19-.45-.45-.28-.62l-.71-1C61.58,46.67,61.79,47.16,61.85,47.8Zm1,.73c0,.22,0,.44-.21.35S62.71,48.42,62.89,48.53ZM60.1,53.74l-1.7-2a1.21,1.21,0,0,1-.79-.05s0,.06,0,.1c0,.23-.22.23-.41.27l0,.06.26.32c.07-.11.1-.27.2-.35s.14,0,.21.07h0c.31.1.57.25.9.33a3.14,3.14,0,0,1-.16,1.36l.17.2a1.09,1.09,0,0,0,.49-.25A1,1,0,0,0,60.1,53.74Zm-.38-.12c.15-.19.24,0,.18.1S59.66,53.72,59.72,53.62Zm-2.15-2.9-.09-.1H57.4C57.34,50.71,57.42,50.89,57.57,50.72Zm.09,2,.05,0a1.71,1.71,0,0,1,.46,0,.2.2,0,0,1-.06-.11A.61.61,0,0,0,57.66,52.74Zm4.63-6.63L62,45.72h-.08l-.07,0a.48.48,0,0,1-.22.34s0,0,0,0C61.92,46.36,62.09,46.17,62.29,46.11Zm-1.1,10.94,1,1.24,1-.82-2.16-2.58a1.14,1.14,0,0,0-.34.38,1.34,1.34,0,0,0-1.07-.12l.55.67c.07,0,.1,0,0,0l.75.92c.25,0,.54.11.59.28S61.38,57.13,61.19,57.05Zm-.65-1.53c.1-.17.3,0,.46,0C60.89,55.72,60.69,55.56,60.54,55.52Zm.54.56c0-.23.21-.12.21,0S61.08,56.2,61.08,56.08Zm-2.84-3.15a.91.91,0,0,0-.07-.14.89.89,0,0,1-.22.29l.19.23a1.22,1.22,0,0,0,.17-.15v0c-.11.06-.17-.07-.11-.16Zm.16,8.92q.48-.49,1-1L57,58.52a1.59,1.59,0,0,0-.52,1.42Zm.41-.6c.1.1-.16.26-.21.2S58.75,61.19,58.81,61.25Zm-2-10.75a.72.72,0,0,0,.12.21l.11-.16A1,1,0,0,0,56.82,50.5Zm86.42,79.18-.15.24a2.85,2.85,0,0,0,.72.14Zm-4.35,19.43-.11-.14v.1ZM138,159.45Zm9.12-92.23a.76.76,0,0,0,.06.35l1.37-.93a.3.3,0,0,0,.15-.18c.11-.11.06-.4.34-.34l.06.15.36-.24s0,0,0,0c.33-.08.34-.48.54-.69a.34.34,0,0,0,.18.25l.26-.18a.63.63,0,0,0-.23-.34c-.2-.16-.26.13-.34,0a.41.41,0,0,0-.07-.27.79.79,0,0,1-.35-.3l-.19.13c0,.17.2.18.13.44a.4.4,0,0,1-.58-.15l-.8.53a.43.43,0,0,1,.07.38c0,.32-.36.36-.61.47,0,.23.21.21.3.33h.08a.16.16,0,0,1,0,.1s0,0,0,.06-.07.38-.21.48S147.24,67.06,147.09,67.22Zm-1.15-6.55c-.09-.13-.15-.3-.35-.31-.19.18.17.17.13.41a.17.17,0,0,1,0,.1Zm-9.79,78a3.49,3.49,0,0,0,.15-.34l-.26.27A.34.34,0,0,1,136.15,138.63Zm-.48.49.15-.09-.08-.18-.17.18Zm5.25,3.31-.37-.36A.76.76,0,0,0,140.92,142.43ZM142.2,136a.44.44,0,0,1-.34-.58h.1l-1.76-1.46c-.27.33-.53.66-.8,1,0,0,0,0,0,0l1.46,1.18a.35.35,0,0,1,0-.32c.54-.13.74.08.62.62-.1-.12-.32-.13-.47-.21l1,.8a.47.47,0,0,1,.19-.08,2.13,2.13,0,0,0-.29-.31c0-.06,0-.09.12-.1-.12-.12-.19-.22.06-.46A.42.42,0,0,1,142.2,136Zm-1.38-.2c-.18,0-.23-.17-.2-.4C140.93,135.3,141,135.6,140.82,135.75Zm0-.59c0-.2.26-.16.41-.21C141.23,135.15,141,135.11,140.82,135.16Zm.86-80a.64.64,0,0,0,.41-.28c0-.19-.07-.24-.12-.34l-6.4,6.33q.51.49,1,1l5.12-5.17Zm-5.61,5.59c0-.23.21-.11.2,0S136.07,60.86,136.07,60.74Zm.82-1h.21C137.1,59.82,136.93,60,136.89,59.71Zm6,2.71a.61.61,0,0,0,.14-.55c.07-.2.34-.2.27-.55,0,0,0,0,0,0l-4.16,3.4c.28.32.55.66.83,1l3.6-3C143.43,62.49,143,62.64,142.91,62.42Zm-2.71,2.25a.56.56,0,0,1,.62-.41A.57.57,0,0,1,140.2,64.67Zm0,77-.3-.31a.32.32,0,0,1,0,.18c0,.06,0,.13-.07.18C139.92,141.59,140.06,141.65,140.18,141.69Zm-2.39,6.07-.69-.85a.62.62,0,0,1-.29.1c-.32,0-.32-.43-.31-.82l-.08-.11c-.06.22-.12.44-.17.68a2.88,2.88,0,0,1,.36.62A3.28,3.28,0,0,1,137.79,147.76ZM149.06,135a.58.58,0,0,1-.19,0l.11.08A.12.12,0,0,0,149.06,135Zm.43-.71a.41.41,0,0,1-.19,0,.29.29,0,0,0-.07-.08.51.51,0,0,1-.53-.1.67.67,0,0,0-.31.12,1.11,1.11,0,0,1-.07.16s.07.07.15.11c.11-.18.48-.09.89,0A.28.28,0,0,0,149.49,134.29Zm.2.61h-.14a.24.24,0,0,0,.13.1S149.69,134.94,149.69,134.9Zm-3.68-10c-.2.38-.39.77-.6,1.15l2.78,1.45c.24-.24.63-.34.66-.8.81.27,0,.44,0,1a2.92,2.92,0,0,0,1.66-.42Zm.6,1.75c-.11-.1.15-.26.2-.2S146.66,126.74,146.61,126.68Zm.41-.41c0-.23.21-.12.21,0S147,126.39,147,126.27Zm5.42-54.11c.28-.07.52,0,.79,0s.55-.42.85-.55a.21.21,0,0,0,0-.36l-.52-.36a.77.77,0,0,0-1.07,0,4.24,4.24,0,0,1-1.61.61c-.65.22-1.28.47-1.91.74-1,.42-2.56.73-3.26,1.58a.12.12,0,0,0,.08.2,5.19,5.19,0,0,0,1.65-.48,26.25,26.25,0,0,1,2.8-.76Zm-9.89,58.74.19.12h1c0-.24,0-.58-.21-.62C143.35,131.09,142.87,130.45,142.55,130.9Zm3.53.7-1-.68c-.27.36.18.54.09,1.14-.54,0-.39.06-.28.25h0a.08.08,0,0,1,0,.09.3.3,0,0,1,0,.1l1.59,1a2.06,2.06,0,0,1,.65-.19.51.51,0,0,1-.17.51l.26.17a1.2,1.2,0,0,1,.8-.39,1.67,1.67,0,0,1,.46-.37l-1.23-.83a2.22,2.22,0,0,0-.12.7h-.83c.23-.48.67-.52.52-1l-.64-.44c.19.25.62.91-.05.14-.06-.06-.38.06-.42,0S145.92,131.57,146.08,131.6Zm.29-71.29.27-.22h-.17A.45.45,0,0,0,146.37,60.31Zm-3.71,9,2.77-.59,1.27-.86a1.88,1.88,0,0,0,.05-1c.07-.3.2-.54.28-.84l-4.56,3C142.54,69.13,142.6,69.23,142.66,69.32Zm-.11,66.53Zm1,9.29-.15-.15a1.77,1.77,0,0,0-.17.59,1.14,1.14,0,0,1,.22.57c.4,0,.67-.32,0-.24,0-.08,0-.13,0-.2l-.07,0a.43.43,0,0,1,.07-.2A1.15,1.15,0,0,1,143.59,145.14Zm15.16-86.5c.16.16,0,.27,0,.48.38,0,.56-.26.89-.34a.46.46,0,0,0,.31.13l.36-.24c-.06-.24-.36-.24-.32-.57.1-.1,0-.36.27-.35s.27.19.41.28a1.74,1.74,0,0,0,.19.26l3-2a.56.56,0,0,0-.32-1,.56.56,0,0,0-.31.09l-3.71,2.44h0c0,.41-.14.78-.61.76a.89.89,0,0,1,.07-.4l-.88.58A1.39,1.39,0,0,0,158.75,58.64Zm2.68-1.78c.2-.07.12.16.13.27a.8.8,0,0,1,.14.56A.47.47,0,0,1,161.43,56.86Zm1.68,28.73,2.21-.39a3.82,3.82,0,0,1-.51-.18c-.57.17-1.14.35-1.7.54C163.08,85.56,163.09,85.59,163.11,85.59ZM156.81,132a.57.57,0,0,0,.43-.22l-.09-.11a.78.78,0,0,1-.37.32Zm-.34-61.08a1,1,0,0,0,.42-.11.5.5,0,0,0,.13,0,.92.92,0,0,0,1-.79.31.31,0,0,0-.17-.3,55.65,55.65,0,0,0-1-.22,1.26,1.26,0,0,0-.35.61.27.27,0,0,0,0,.09,2.8,2.8,0,0,1-1,.21c-.05,0,0,.07,0,.08C155.81,70.57,156.12,70.9,156.47,70.89Zm-6.89,49.89-.74-.32c0,.48.28,1.28-.4,1.1.15.26.45.37.7.53l.6.25.13,0c0-.09.18-.18.22-.13s0,.13-.05.17a.19.19,0,0,1,.09.14l1.64.66c.1-.18.25-.3.62-.2a.39.39,0,0,1-.14.4l.35.14v-.74a1,1,0,0,0,.62.2v.42a1.1,1.1,0,0,1-.48.18l2.35,1c.06-.06.14-.09.17-.06s0,.08,0,.13l.94.38c.3-.35.5-.8.92-1l-2.85-1.2v0l-1.82-.77-.44.16a1.08,1.08,0,0,1,.15-.28l-2-.82a.79.79,0,0,0-.06.69A.89.89,0,0,1,149.58,120.78Zm-.7.74c-.11-.11.15-.27.21-.21S148.94,121.57,148.88,121.52Zm5.79,1.86c.11.1-.15.26-.2.2S154.62,123.32,154.67,123.38Zm-3.93-1.66c.7-.49-.5.69,0,0ZM157,60.09a1.59,1.59,0,0,1,.34-.48.89.89,0,0,0-.11-.3l-.71.48C156.64,59.89,156.68,60.12,157,60.09Zm13,24.24a.25.25,0,0,0-.24.11l.36-.06S170,84.34,170,84.33Zm.47,14.89c.12-.15,0-.37-.13-.44a.49.49,0,0,0-.31.42Zm-5.5-.79a.35.35,0,0,1,.05-.08l-.25,0A.23.23,0,0,0,165,98.43Zm-5.08-6.12s0,0,0,0c1.26.18,3-.17,4.16.41a2.64,2.64,0,0,0,1.27.21c0-.18.12-.2.11-.37,0-.39-.56-.28-.52-.75h.41c.24-.07.31-.3.46-.47a.47.47,0,0,0,.27,0,3.5,3.5,0,0,0-1.84.18A25.23,25.23,0,0,1,159.87,92.31Zm9.42-7.79a.67.67,0,0,1,.17-.31,2.3,2.3,0,0,1,.23-.4,2.32,2.32,0,0,0,0-.24c-1.17.33-2.34.66-3.51,1v.1a2,2,0,0,0,.19.35Q167.82,84.76,169.29,84.52Zm-24.75,62.22c.06,0,.32-.1.21-.21S144.44,146.63,144.54,146.74Zm5-5.06,0-.05,0,0A.28.28,0,0,0,149.53,141.68Zm-.59.49a.79.79,0,0,0-.05-.33,1.42,1.42,0,0,1-.4.41l.21.17.16-.17h0Zm-2.4-1.65a.2.2,0,0,1-.06.12l1.53,1.22a1.38,1.38,0,0,0,.2,0,6.81,6.81,0,0,0,.35-1l-1.14-.94c-.1,0-.19,0-.22-.11l0,0-.77-.63h-.06V139l-.66-.55h0a.59.59,0,0,1,0,.23c-.1.31-.2.05-.2-.17l-.12,0a.52.52,0,0,1-.4.1.51.51,0,0,1-.2-.49c-.46,0-1.15.1-1.11-.56a5.45,5.45,0,0,0,1.3.25L144,137h0s0,0,0,0l-1.15-1a2.39,2.39,0,0,1-.54,0v.41s0,.05.06.08a.71.71,0,0,1,.25.11c.15,0,.31,0,.31-.19.17.09,0,.69-.31,1l1.78,1.43s0,0,0,0c.35-.26.21-.07.06.08l1.79,1.44a.47.47,0,0,1,.15-.24c.16-.09.22.08.22.25l.05-.08C147.08,140,146.69,140.42,146.54,140.52Zm1.69.68c0,.24-.2.12-.2,0S148.23,141.09,148.23,141.2Zm-.79-.87c.69-.51-.5.69,0,0ZM142.89,137a.56.56,0,0,1,.41.62A.58.58,0,0,1,142.89,137Zm2.09,9.52h0Zm-.49-.49-.07-.07h-.08A.37.37,0,0,0,144.49,146.05Zm7.66-17.81h0Zm4,2.78c0-.16.19-.32.37-.46l-.76-.41A1.47,1.47,0,0,0,156.12,131Zm-6.41,3a.44.44,0,0,1-.12.18l.09.15a.6.6,0,0,1-.1.25l.16,0c.1-.15.33-.18.55-.23l-.14-.09c-.21,0-.48,0-.44-.22h.11Zm-.11,1.51.31.2c.05-.19.24-.25.18-.55h-.62v.26l.06,0c.05-.12.25-.11.39-.14C149.91,135.53,149.75,135.53,149.6,135.56Zm.86-.39a.26.26,0,0,0-.09-.14c-.07.05-.13.12-.07.18S150.4,135.21,150.46,135.17ZM97.23,29.22a.72.72,0,0,1,.3.12c-.12-.37.16-.78.56-.63v-.49l-.18.05A1.48,1.48,0,0,0,97.23,29.22Zm-.41,8.28v.09l0-.05Zm.79-11.22c.18.28,0,.38-.15.44a.79.79,0,0,0,.35.35.71.71,0,0,0,.27.07V26l-.14,0a.7.7,0,0,1-1-.06v.17C97.15,26.27,97.44,26.5,97.61,26.28ZM97,34.77c.5.27.19.5.72.41-.42.57-.13,1-.08,1.39.3-.26.35,0,.47.19v-.41s-.08,0-.08,0,0-.09.08-.11V33.28a.76.76,0,0,1,0-.89v-.34a.46.46,0,0,0-.21.36L97,31.9c.21-.31,0-.51.24-.82a2.39,2.39,0,0,1,.87.61l0-2.48c-.25.4-.54.62-.91.56a1.55,1.55,0,0,1-.32,0V31a.37.37,0,0,1,0,.21l0,4.72C97.25,35.79,97.28,35.27,97,34.77Zm51.72,22.64c.35.08.28-.27.55-.28s.32.27.5.16a.57.57,0,0,0,0-.29,1.7,1.7,0,0,0-.18-.26.54.54,0,0,0-.37-.16.55.55,0,0,0-.34.13.17.17,0,0,1,.11.15C149,57.15,148.49,57.11,148.74,57.41ZM91.69,44.82a6.85,6.85,0,0,0-.5-.7h0l.15,1.61c.43,0,.86-.1,1.3-.13l-.06-.49,0,0C92.43,44.82,92.1,44.79,91.69,44.82Zm5.67-22.26a1.43,1.43,0,0,0,.7.39v-.26a.67.67,0,0,1-.24-.1,4.11,4.11,0,0,0,.24-.39v-.62a.28.28,0,0,0-.07-.09,8.1,8.1,0,0,0-1.07-.07v.48C97.32,21.87,98.12,22.53,97.36,22.56Zm.7.74A4.89,4.89,0,0,0,96.9,23v.35c.37,0,.76.07,1.16.09ZM83.13,27.16a.89.89,0,0,0-.36.71l-.2.17,0,.22c.21-.29.35-.79.66-.68.12.37-.25.87-.53,1.34l.05.25.33.08a.7.7,0,0,1,.15-.28c.29-.1.19.21.2.39a1.68,1.68,0,0,1,.52.3l.12-.09-.26-1.21a1.17,1.17,0,0,1-.43-.22.58.58,0,0,0,.31-.4l-.18-.84-.24.12a.11.11,0,0,1,0,.1C83.22,27.22,83.16,27.21,83.13,27.16ZM97.25,25.9s.07,0,.12,0a.5.5,0,0,1-.11-.1A.09.09,0,0,0,97.25,25.9Zm.47-1.46a2.78,2.78,0,0,0-.58.76.44.44,0,0,0,.19.07.69.69,0,0,1,.31-.15.33.33,0,0,1,.07-.16.83.83,0,0,1,.36,0v-1l-.16-.07a4.65,4.65,0,0,1-1-.06v.87a3.24,3.24,0,0,1,.44,0C97.09,24.53,97.41,24.13,97.72,24.44Zm-.67,1.25a.73.73,0,0,0-.16,0v.24C97,25.87,97.08,25.84,97.05,25.69ZM75.32,48.05c-.06.23.46,1.17.72.41.39.26-.16.56-.36.68l.21.51a.46.46,0,0,0,.2-.45c.2-.11.66,0,.39-.25.22-.31.48.08.58.38l.18-.08L77,48.74c-.08,0-.16,0-.17-.05s0-.1.1-.11l-.2-.48-.05,0c-.66-.4-.4-.49-1.08-.61C75.67,47.72,75.63,48.16,75.32,48.05Zm3.42,113.71a.59.59,0,0,0-.37-.07l-.14.47C78.47,162,78.8,161.91,78.74,161.76Zm-.44.75a.6.6,0,0,1-.16,0l-.09.31C78.16,162.78,78.25,162.73,78.3,162.51Zm-3-8.61c-.07-.47-.42-.44-.77-.41l-.09.23C74.76,153.77,74.79,154.27,75.33,153.9ZM80.46,45.62c0-.17,0-.32-.42-.3l.15.51A1.53,1.53,0,0,1,80.46,45.62Zm17-24.9c.06-.1,0-.29-.18-.1S97.32,20.9,97.47,20.72Zm-16,1.71s0,0,0,.05l0,0a.22.22,0,0,0,.18.33s0,0,.08,0a3.89,3.89,0,0,0,.31.61c.14.2.54.76.21,1a.45.45,0,0,0-.09.69,1.75,1.75,0,0,0,.48.27h0a.51.51,0,0,0,.25,0h0c.51-.07.45-.86,0-1h0c0-.36.24-.77.3-1.11a2,2,0,0,0-.63-1.62.58.58,0,0,0-.5-.17v0a.4.4,0,0,0-.13,0h0a.53.53,0,0,0-.31.19v0a.56.56,0,0,0-.18.75C81.41,22.46,81.46,22.47,81.5,22.43Zm-.89,24.78a.94.94,0,0,1,.31.23c.07-.6.16-.49.61-1.07l.17,0-.07-.2-.17-.1.09-.17-.09-.3c-.32.1-.47.73-.8.5a.27.27,0,0,1-.14-.08l-.17.31Zm1.46.37-.12-.4c-.3.11-.93.08-.22.5h0Zm1.25,120.86a.32.32,0,0,0-.06-.18l0,.21ZM81.81,46.73c0,.19-.1.33.06.21ZM84.3,36.58a4.74,4.74,0,0,1,.56.82s0,.06,0,.1a.46.46,0,0,0,.14.07l.06,0a2.56,2.56,0,0,0,.66.22l0-.09-.07-.35v0a1.78,1.78,0,0,0-.11-1.82C84.93,34.57,83.47,35.72,84.3,36.58Zm58.91,18.56L144.36,54c0-.18,0-.36,0-.54s-.38.07-.27-.2c.43,0,.92-.3.68-.76-.26.09-.39.3-.68.35s-.17.47-.55.41a1.91,1.91,0,0,0,0-.24l-.6.6a3.45,3.45,0,0,0,.32,1.36C143.24,55,143.22,55.07,143.21,55.14ZM97.75,20.64c0,.08.32.08.29-.07S97.71,20.5,97.75,20.64ZM142,34.14c-.19.1-.7.38-.24.6l.38-.58a.55.55,0,0,0-.15-.78.63.63,0,0,0-.32-.1.57.57,0,0,0-.46.25l-.29.43a1.65,1.65,0,0,1,.41.52A.57.57,0,0,1,142,34.14Zm-.15-.56.18.1C141.94,33.78,141.74,33.8,141.82,33.58Zm3.85,17.29-.47.47a1.89,1.89,0,0,1,.39,0A1.5,1.5,0,0,0,145.67,50.87Zm-3,3-.12.12.06,0S142.61,53.92,142.63,53.88Zm4.19,4.63-.09,0-.26.21a.31.31,0,0,1,.21.44c.29.06.55.15.65.39l.56-.47a.38.38,0,0,1,0-.19c.16-.13.18-.41.48-.41a1.77,1.77,0,0,1,0,.24l.78-.65c-.32,0-.41.24-.56.41-.14-.35-.45-.52-.56-.89,0,0,0,0-.06,0l-1,.83A.2.2,0,0,1,146.82,58.51Zm-.21-7.34a2.09,2.09,0,0,1,.4.12l.3-.3-.15-.09a1,1,0,0,0-.2-.76.63.63,0,0,0,0-.53l-.9.89A1.33,1.33,0,0,1,146.61,51.17ZM152.1,64c-.21,0-.12-.34-.41-.27s-.33.4-.55.55c0,.16.11.26.07.48,0,0,0,.07,0,.1l1.7-1.15a.5.5,0,0,0-.43-.46c0,.16.12.2.07.41C152.3,63.69,152.33,64,152.1,64Zm-.78,45.56a.71.71,0,0,0,.81.31l.2.08c.46.15,1.14-.18,1.23.39a.41.41,0,0,0,.42.31c.76,0,1.76.38,2.42-.11a.59.59,0,0,0,0-1c-.63-.46-1.55-.1-2.26.18a1.78,1.78,0,0,0-.32-.28.33.33,0,0,0-.39,0,1.59,1.59,0,0,1-1,.2.27.27,0,0,0-.44-.24c.14-.12.23,0,.07-.13a.68.68,0,0,0-.46-.07c-.14,0-.32.14-.34.3,0,0,0,0,0,0h0S151.31,109.52,151.32,109.55Zm-2.18-60.41.23-.24h0a.52.52,0,0,1,.07-.69c.14,0,.21.25.18.44L152.22,46l.07,0a7.06,7.06,0,0,0,2.34-2.08c.52-.66-.29-1.54-.93-.94s-2,.59-2.53,1.54c-.42.79-.9,1.53-1.37,2.29l-1,1a2.38,2.38,0,0,1,0,.75c-.06.14-.35,0-.34.27S148.87,49.07,149.14,49.14Zm.82-1.73a5.29,5.29,0,0,0,.52-.29c.14.37,0,.89-.51.76A.92.92,0,0,1,150,47.41ZM128.39,55l13.2-20a4.38,4.38,0,0,0-.29-.48c-.18.28-.47.2-.79,0l-.34.51s.08,0,.08,0-.1.13-.19.12l-1.62,2.39a.34.34,0,0,0,.09.08.19.19,0,0,1-.18.06L134,44.12c.21.16,0,.42-.07.67a.66.66,0,0,1-.17-.33l-6.56,9.72C127.61,54.44,128,54.69,128.39,55Zm11.16-17.44c.26-.22.19.09.08.28S139.44,37.71,139.55,37.52Zm-2.21,3c0,.15-.26.16-.28.08S137.32,40.46,137.34,40.54Zm-2.11,2.84c0,.15-.26.16-.28.08S135.21,43.31,135.23,43.38Zm10.22,16.84c.08-.47.44-.65.62-1a.3.3,0,0,1,0-.15l-1.08.89s0,0,0,0A.59.59,0,0,0,145.45,60.22ZM98.08,39.31a.74.74,0,0,0-.37,0c-.07.28.13.56.31.85a.63.63,0,0,0,.09-.22l0,0v-.4a.23.23,0,0,0-.11.09A.31.31,0,0,1,98.08,39.31Zm-.19-1.9c0-.1,0-.28-.18-.1S97.74,37.6,97.89,37.41ZM74.32,154.09c.14,0,.22,0,.12-.31ZM102.65,39.91a1.48,1.48,0,0,1,1.1.54l.37-4.22-.05,0a.36.36,0,0,1,.07-.1l.26-3a.53.53,0,0,0-.08-.32,1.19,1.19,0,0,1-.24,0c-.37,0,0,0,.21-.09a.64.64,0,0,0-.47-.26.55.55,0,0,0-.49.3c.19-.05.39-.07,0,.1h-.06a.61.61,0,0,0,0,.13l-.13,1.25c.36,0,.43-.42.72-.6a3.19,3.19,0,0,1-.28,1.74,1.73,1.73,0,0,0-.52-.31l-.43,4.25C102.82,39.5,103,39.75,102.65,39.91ZM98,20.19a.55.55,0,0,0-.27-.25.66.66,0,0,0,0,.43C97.8,20.39,97.89,20.31,98,20.19Zm6.63,143.75v-.09a.41.41,0,0,0-.14.12Zm7.58-140.89-.09.44A.33.33,0,0,0,112.19,23.05Zm.38-.8a.56.56,0,0,0,.05.74C113,22.87,113.28,22.45,112.57,22.25Zm.45-.83a.21.21,0,0,0,0,.11.75.75,0,0,0,.46.13A.72.72,0,0,0,113,21.42Zm-8.38,142.83v-.05s0,0,0,.06Zm6-1.63-.18-.92C110.42,162.09,110.42,162.45,110.61,162.62Zm16.9,9.09a2.83,2.83,0,0,0-.31-.74.28.28,0,0,1,.27-.15l-.16-.37a1.25,1.25,0,0,0-.13.26c-.24-.12-.23-.35-.15-.59a2.93,2.93,0,0,1-.45-.08c-.07-.31.2-.33.45-.29l-.14-.35a1.49,1.49,0,0,1-.61.28c0,.07-.08.15-.12.23a2.73,2.73,0,0,0-.25-.23l0,0a.48.48,0,0,1,0-.2.56.56,0,0,0-.1.15h0l0,0h0c.09.37.35.83.26,1.15a3,3,0,0,0,.14,1.52.72.72,0,0,0,1.4-.31.94.94,0,0,1,.23-.16h.08l-.06-.15ZM126.19,170c.13,0,.24,0,.24.27Zm.49.49h0Zm1.11-15.53c0-.06,0-.16,0-.32,0,0,0,0,0,0l-.09.08-.33-.63c-.19.36-.46.75-.81.38a.9.9,0,0,1,.79-.4l-1.15-2.17c-.1.2-.26.35-.47.3a.64.64,0,0,1,.23-.75L124.1,148a.49.49,0,0,1-.43,0,.27.27,0,0,0,0-.16l-.82.44,1.32,2.43a.87.87,0,0,1,.36-.06,1,1,0,0,0-.17.4l.79,1.44c0-.16.08-.27.39-.13a4.09,4.09,0,0,1,0,.8l1.4,2.55c-.34.05-.29.6-.23.85.12.43.55.34.75.11l.18.34q0,.1,0,.24c0,.3-.09.6.16.83s.58.41.63.55a.16.16,0,0,0,.3,0l.25-.22a.76.76,0,0,0,.13-1.22Zm-3.52-5.39a.68.68,0,0,1,.1-.5c.17,0,.17.09.3.1C124.64,149.35,124.61,149.59,124.27,149.52Zm.61,1.61c-.13,0-.26-.29-.21-.41C125,150,125.06,151.09,124.88,151.13Zm6.94-1-.2-.3c-.17.09-.29.23-.5.07,0,.09-.17.18-.22.13s.12-.24.19-.21a.63.63,0,0,1,0-.24c0-.05,0-.1.07-.14a.63.63,0,0,1,.11-.12l-.07-.13-.72-.19a1,1,0,0,0,0-.57l-.2.07a.25.25,0,0,1,0,.09l-.12,0a4.82,4.82,0,0,0-.5.27,1,1,0,0,1,.41.81s-.1,0-.15.07l.36.54c-.08-.11.15-.25.21-.2s-.14.26-.21.21l.42.61c0-.19.25-.15.41-.2,0,.2-.24.16-.41.21l.16.22c0-.16.11-.31.33-.3l.06.37c.09,0,.18,0,.27-.09A.81.81,0,0,1,131.82,150.14Zm-.09.32c0,.16.17.24.41.2C132.1,150.5,132,150.42,131.73,150.46Zm.34.33.14-.07,0-.05ZM125.91,167l-.34.09-.11-.4.29-.07-.17-.43c-.29,0-.61-.32-.47-.64-.29.08-.27.24-.19.42.09,0,.21.13.18.18a.08.08,0,0,1-.07,0,.52.52,0,0,1,.08.39.94.94,0,0,1-.29,0,2.49,2.49,0,0,1,0,.9s0,0,0,.06l.11.26c.41.28.76,0,1.23-.15Zm-.94.26h0a.59.59,0,0,1-.11-.46c.16.19.58.12.61.45a.41.41,0,0,1,.41.4C125.53,167.66,125.05,167.8,125,167.26Zm1.11,1.74a.65.65,0,0,0-.2-.23.72.72,0,0,0-.4.33l.12.27c0-.15.12-.28.41-.28Zm-3.84-10.69a.59.59,0,0,0-.8.8c-.08-.18,0,.14,0,.26a.68.68,0,0,0,1.32.36A1.1,1.1,0,0,0,122.24,158.31Zm-71-88.59c.13,0,.17.11.19.26l.34.23c.15-.24.31-.47.47-.71,0-.08,0-.16.12-.19l.18-.27-1.82-1.2c-.05,0-.11,0-.13,0s0-.07,0-.11l-3.38-2.23a1.15,1.15,0,0,1,0,.26l.06,0a.31.31,0,0,1-.14.4,3.15,3.15,0,0,1-.21.51l-.08,0s0,.05,0,.09,0,0-.08-.07l-.08,0,4.47,3A.17.17,0,0,1,51.19,69.72Zm-3.69-3a4.42,4.42,0,0,1-.15.48c-.5-.21-.44-.58-.12-1a.41.41,0,0,1,.29.48.3.3,0,0,1,.06-.11C48.06,66.72,47.5,67,47.5,66.77Zm.34,0c0-.15.26-.16.28-.08S47.86,66.9,47.84,66.82Zm.22-.2c-.11-.1.15-.26.2-.21S48.11,66.68,48.06,66.62Zm1.45,1c-.64.56.56-.63,0,0Zm1.65,1c.1.11-.15.27-.21.21S51.1,68.63,51.16,68.69Zm.62.41c-.29.52-.71.37-1.24.21C50.56,68.85,51.41,69.22,51.78,69.1Zm90.49,76c-.06-.06-.32.1-.21.21S142.37,145.19,142.27,145.08Zm-6.67,1.2a1.43,1.43,0,0,1,.6.41c-.17-.38,0-1-.78-1.15a.41.41,0,0,1,.26-.36L133,141.84a1,1,0,0,0,.15.43c-.14.09-.2.27-.4.3-.08.38.25.36.2.73a5.42,5.42,0,0,0,.64,1h0c.09-.39.07-.88.62-.82a1.65,1.65,0,0,1-.53,1,2.34,2.34,0,0,1,.13.35l.5.6a.84.84,0,0,1,.28.34l.73.88C135.34,146.48,135.42,146.32,135.6,146.28ZM133,142.81c-.11-.11.15-.27.2-.21S133,142.86,133,142.81Zm1.63,2.36c.18.1.35.19.3.5C134.59,145.72,134.58,145.46,134.6,145.17Zm-13.07,11.1a.59.59,0,0,1-.18-.13,1.34,1.34,0,0,0,0,.35,1.19,1.19,0,0,1,.22-.05Zm19.08,7.3.06,0,0,0Zm0,.89h.07v0Zm.11,0a.05.05,0,0,0,0,0h0Zm0-13.1a1.78,1.78,0,0,0-.77-.3,1.35,1.35,0,0,1-.6-.32s0,0,0-.05c0-.52-.32-.65-.63-.82a.69.69,0,0,1-.35.38.47.47,0,0,1-.05.1l.1.12a1.34,1.34,0,0,1,.51-.4c.1,0,.15.31.2.54a.91.91,0,0,0-.26-.13s0,0,0,0a.66.66,0,0,0,.11.26,2.68,2.68,0,0,1,.36.63,1.57,1.57,0,0,0,0,.23s.12.42.09.2a1.07,1.07,0,0,0,.29.58.34.34,0,0,0,0,.1.75.75,0,0,0,1.45-.4A1.09,1.09,0,0,0,140.73,151.33Zm2.63-6.42-1.76-1.79c-.08.08-.25.06-.37.1,0-.15.15-.17.28-.18l-.26-.28a6.16,6.16,0,0,1-.64.05c.06-.37-.19-.43-.2-.21-.39,0-.14-.68-.62-.62a.89.89,0,0,1,.05-.23,4.29,4.29,0,0,0-.08,1.42l.32.31a.22.22,0,0,1,.14.14l.35.35a.76.76,0,0,1,.15-.9c.37.09.45,1-.05,1l.36.36c0-.34.25-.42.2-.8.36-.06.37,1.07-.15.85l.26.25C142.07,144.63,142.49,145.12,143.36,144.91ZM140,143c-.11-.1.14-.26.2-.2S140.05,143.07,140,143Zm-2.39,15.89-.09-.13a.48.48,0,0,1-.24,0,.52.52,0,0,1,.09-.24l-.15-.22a4.61,4.61,0,0,1-1.1-.17s0,0,0,.06c.25.18.64.2.61.66.3-.06.59.14.87.09Zm-1.75-1.34a.72.72,0,0,0,.44-.25.48.48,0,0,0,.09-.26l-.23-.35H136a.53.53,0,0,1,.06-.1l-.63-1a1.71,1.71,0,0,1-.86,1l.19.28a2.08,2.08,0,0,1,1.06-.26Zm4.34,5.27a5.55,5.55,0,0,1-.89.6.37.37,0,0,1,0,.15l0,0a1.53,1.53,0,0,1,.3,0,3.06,3.06,0,0,0,.37-.35.6.6,0,0,1,.29.31,1.34,1.34,0,0,0,.33-.12ZM135.71,158a.86.86,0,0,1-.16,0l.27.39a3,3,0,0,0,.09-.32l0,0Zm3.11-7.17.16.2C139,150.9,138.91,150.86,138.82,150.87ZM137.56,160a1,1,0,0,1-.45.39l.59.87c.19-.21.4-.4.61-.59a1.42,1.42,0,0,0,.05-.16s0-.05,0-.08l0,0,.07-.22-.07-.12A.68.68,0,0,1,137.56,160Zm-12.44,5.11-.29-.71a.89.89,0,0,1-.54.16c0-.24,0-.37.2-.41-.09-.18-.18-.37-.41-.42.25-.59.3,0,.56.2l-.5-1.21-.06,0c-.25-.19-.18-.19,0-.15l-.49-1.22-.17.08a3,3,0,0,1-.51,1.6l.21.5c.22,0,.15.2.16.37h0c.1,0,.22.13.18.19a.05.05,0,0,1-.07,0,1.18,1.18,0,0,1,.07.2l.38.9,0,0h0a.6.6,0,0,1,.47,0c0,.05,0,.07,0,.11s.15.06.13-.34l.13,0c-.07,0-.12-.11-.09-.15s.29.08.25.15l-.06,0A1.05,1.05,0,0,0,125.12,165.06Zm-1.28-2c-.26,0-.31-.35-.11-.4S123.76,162.85,123.84,163.07ZM97,41.41a2.23,2.23,0,0,0,0,.68c.12,1.22,1.63.62,1.45-.15a3.17,3.17,0,0,0,0-.53A.7.7,0,0,0,97,41.41Zm1.2,113.11h0A0,0,0,0,1,98.18,154.52Zm5.33-111.36.18-2.07c-.47-.08-.57-.78-1.17-.54-.07.32.27.06.54.31a.65.65,0,0,1-.62.29l-.14,1.34a2,2,0,0,0,.33-.08A4,4,0,0,1,103.51,43.16Zm-.68-1.48c-.83.18.8-.26,0,0Zm1.91,124.4c-.24,0-.16-.17-.06-.2a.2.2,0,0,1,.12,0l-.07-.67a2,2,0,0,0-.51.53c-.17-.45-.54-.71-.73-1.13l.13,1.24a.47.47,0,0,1,.3-.11c0,.65-.26,1.11.2,1.41.44.1.32-.34.7-.3h0a.47.47,0,0,0,0-.17l-.06-.65Zm-1-3.56c.08,0,.16.13.13.17s-.06,0-.11,0c0,.32.06.64.3.74,0-.26.28-.34.52-.3l-.74-7.75a2.78,2.78,0,0,1-1-.29c0,.07-.16.13-.2.09s0-.13.06-.17l-.2-.13.06.56a3,3,0,0,1,.91.67c.51.89-.19,1.73-.5,2.41a2.77,2.77,0,0,1,0,.58l.31,2.92h.3A.77.77,0,0,1,103.69,162.52Zm-.51-2.23c-.11-.5.66-.24.79-.21C104.08,160.58,103.32,160.32,103.18,160.29ZM97.61,45a.66.66,0,0,0-.24.34h.34C97.82,45.24,97.86,45.11,97.61,45Zm-.34,129.07c.17-.28-.08-.68-.39-.88v2a3,3,0,0,1,1-.36h0c-.11-.1.14-.26.2-.2s0,.1,0,.14l.06,0v-1C97.74,173.75,97.42,173.8,97.27,174.09Zm-.38-16c0-.24,0-.48-.1-.59l0,6.88c.63-.39.43-1.47.17-2.07.06-.6.25-.69,0-1.21,1.21-.05,1.13-1.4,1.1-2.71,0-.26-.56.1-.4-.3a1.44,1.44,0,0,0,.46-.08v-.72a1.18,1.18,0,0,1-.47.2C97.32,157.63,97.44,158.23,96.89,158.14Zm.85,16.9c-.36.13.06.71-.19.9a1.54,1.54,0,0,1-.48-.06s0,0-.07,0h0a.29.29,0,0,1-.1,0v.39a1.16,1.16,0,0,0,.54.24.29.29,0,0,0,.14-.19v.22h0c0-.24,0-.59.21-.62a3.33,3.33,0,0,0,.23.35v-.35h0s0-.11,0-.15v-.64A.52.52,0,0,1,97.74,175Zm-.63-3.13a.09.09,0,0,1,0,.08c-.06.11-.22,0-.25-.1h0V173c.12-.15.29-.27.16-.56.52.16.67-.18,1-.06v-.56a1.44,1.44,0,0,0-.39-.25C97.53,171.72,97.29,171.79,97.11,171.91Zm1,1.37v-.45a2.35,2.35,0,0,0-.68.16A.69.69,0,0,0,98.08,173.28Zm25.2-121.84a.83.83,0,0,0-.18.3l.51.27.46-.87h-.28A.44.44,0,0,1,123.28,51.44Zm3.12-20.26a.51.51,0,0,1,.21,0l1.81-4.45a0,0,0,0,0,0,0,1.51,1.51,0,0,1,.11-.22c.55-1.07-1.12-1.42-1.34-.59-.28.55-.56,1.09-.89,1.61-.45.71-.21.66-.36,1.5-.11.55-.26,1.12-.43,1.7l-.33.79v.09h0l-3.47,8.24a1,1,0,0,1,.3,0c0,.1.09.18.2.2a1.52,1.52,0,0,1-.2.81,1.21,1.21,0,0,1-.64-.18L119.49,45c.49,0,1,.06,1.45.05l5.39-13.25A.76.76,0,0,1,126.4,31.18ZM114.1,151.94l-.46.14c0,.25.13.59.1.85a.69.69,0,0,1-.57.28l3.48,11.1a.58.58,0,0,0,.55.4l.17,0a.51.51,0,0,0,.16-.09l0,0s0,0,0,0a.57.57,0,0,0,.18-.61L114.16,152S114.11,152,114.1,151.94Zm6.13,1.13-1.21-3-1.3.53,1.83,4.34a2,2,0,0,1,.76-1.22A.66.66,0,0,1,120.23,153.07Zm6.12-106.4a.45.45,0,0,0-.58.09h0c-.08.07-.21,0-.3.14a.8.8,0,0,0-.17.4,2.29,2.29,0,0,0,0,.94h0a.16.16,0,0,0,.24.11,1.94,1.94,0,0,0,.61-.69.84.84,0,0,0,.23-.12.5.5,0,0,0,0-.85Zm-4.48,110.47h0l-.13-.32a.65.65,0,0,1-.21.05A.77.77,0,0,0,121.87,157.14Zm-10-128.64c-.47.57-.19,1.46-1,1.09l-.35,1.74.15.07a.55.55,0,0,0-.19.12l-.41,2a1.09,1.09,0,0,1,1,.47c-.27.34-.7.11-1.1,0l-.1.52a.51.51,0,0,1-.15.73l0,.12,1,.56c.2.68-.46.18-.69.8a.62.62,0,0,1-.34,1c-.5-.21-.25-.64-.13-1l-.09-.06L107.92,44l.27.06a.41.41,0,0,0,0-.44,2.32,2.32,0,0,0,.46-.07c0-.13.08-.24.12-.36s.16-.5.38-.67a1.28,1.28,0,0,1,.53-.32l1.27-6.58a2.6,2.6,0,0,0-.25-.1c.07-.11.17-.08.27,0l.07-.32a1.6,1.6,0,0,1-.31-.1c.08-.13.2-.07.33,0l.1-.55c0-.46.4-1-.61-1.2.18-.44.64.1.85-.23.18-.85-.4-.16-.9-.51a1.27,1.27,0,0,1,.7-.79c.45.11.28.4.37.62l.29-1.47c-.29.05-.79-.74-1-.29-.34-.58.72-.27,1,0l.07-.33-.32-.19a1.63,1.63,0,0,1,.48-.67l.09-.46C112.06,28.92,111.9,28.64,111.83,28.5Zm-1.78,6.84c0-.14.26-.15.28-.08S110.07,35.42,110.05,35.34Zm-1,3.74c.54-.16.61-.66.87-.69C110.32,37.87,109.86,39.77,109.09,39.08Zm.55,124.45h0a.6.6,0,0,0,.58.44h0c.56.07.79-.72.44-1.07S109.4,162.92,109.64,163.53Zm-.11-1.77c.45.11.6-.36.89-.11l-1.53-8a3.6,3.6,0,0,1-.63-.25l-.82.16.56,2.74a.69.69,0,0,1,.23.49.27.27,0,0,1-.12,0l.31,1.53a1.77,1.77,0,0,1,.41-.36c.08.42.49.52.5,1s-.46.41-.5.81c.15.24,0,.78.2,1,.51,0,.14-.8.7-.7a2.09,2.09,0,0,1,.1.9C109.57,161.13,109.48,161.37,109.53,161.76Zm4.26-114,.34-1.13a.31.31,0,0,1-.07-.48.3.3,0,0,1,.2,0l3-10.38a.58.58,0,0,0-.39-.72l-.16,0a.58.58,0,0,0-.56.41l-.82,2.67a.25.25,0,0,1,.26,0c.86.07-.89,1.12.23.85,0,.35-.56.75-1.06,1.1l-2.28,7.45.85.25Zm1.75-6.6c0,.14-.26.15-.28.07S115.52,41.05,115.54,41.13ZM113,46.52v-.3C113.25,46.08,113.25,46.67,113,46.52Zm-.42-19.18.3-1.55-.09,0a1,1,0,0,1-.74.48,1.54,1.54,0,0,1,.33.1c-.11.17-.3,0-.46,0,0,0,0,0,.07-.06a0,0,0,0,1,0,0,.84.84,0,0,1,.16-.88.28.28,0,0,0-.07-.17c.1-.26.61,0,.9,0l.33-1.72h0l-.41.72c-.41-.28-.68-.07-.93.23l-.52,2.53s.06,0,.08,0a1,1,0,0,1,.13-.64c.65.13.09.58,0,.92h-.22L111,29.05c.22-.18.46-.37.24-.68.15-.18.23,0,.17.11.34.1.56-.23.94,0l.16-.84a.36.36,0,0,1-.3-.15A.73.73,0,0,1,112.53,27.34ZM164,144.25s.1,0,.16,0a.54.54,0,0,0,0-.18C164,144.05,163.88,144.17,164,144.25Zm-4-19.12c-.11.1-.2.21-.31.31,0-.15,0-.33,0-.45l-.2-.09c-.11.33-.41.48-.38,1,.36-.1.46.15.45.44l.4.16c.39-.08.19-.76.6-.81,0,.51,0,1,.41,1,.46-.25-.07-.78,0-1.16Zm-.31,1.14c-.11-.11.15-.26.21-.21S159.69,126.33,159.63,126.27Zm1.66-.23v0h0Zm1.58,1.65.19.07a1,1,0,0,1-.05-.18C163,127.61,162.92,127.66,162.87,127.69Zm1,15.95-.35-.23c0,.14,0,.29,0,.43a2,2,0,0,1,.45-.08A1.31,1.31,0,0,0,163.9,143.64Zm-.34-17c-.41-.06-.41.28-.62.42a1.35,1.35,0,0,0,.17-.63l-1.49-.63a.49.49,0,0,1-.14.24c.39.06.48.35.22.6.31,0,.76-.07.83.21-.38.37-.88-.08-1.24.15l.71.29a.14.14,0,0,1,.11,0c.38,0,.5.11.54.26a1.6,1.6,0,0,1,.32-.15l0-.11C163.48,127.43,163.69,127.22,163.56,126.68Zm-1.06,0c-.11-.1.15-.26.2-.2S162.56,126.79,162.5,126.73Zm-5.36,12.7a.78.78,0,0,0,.46,0l-.29-.2A.7.7,0,0,1,157.14,139.43Zm-.21,1,.4.27v-.49A.39.39,0,0,0,156.93,140.39Zm2.91,1.59a.9.9,0,0,0,0-.16h0v0s0-.07,0-.11-.14.1-.3.07a.68.68,0,0,1,.1-.5.26.26,0,0,1,.19.05,2.31,2.31,0,0,0-.1-.28,1,1,0,0,1-.23-.29c0,.49-.59.43-1.11.41.23.15.43.24.45,0a.52.52,0,0,1,.13.13c.29-.09.52-.2.53,0a2.38,2.38,0,0,0-.05.26h0c.11.1-.14.26-.2.2s0-.08,0-.12-.08-.07-.07.15l.39.26c.06,0,.14-.06.16,0s0,.09,0,.13l.05,0h.05a.88.88,0,0,1,.27-.07c.09-.22.32-.16.48,0l.15,0a.42.42,0,0,1,0-.32s0,0,0,0a1,1,0,0,1,.24-.22l-.31-.2C160.35,141.6,160.29,142,159.84,142ZM98,177.54h-.24c.07.15.16.22.27.13v-.46l0-.11Zm60.33-37.28s.08-.1,0-.14h0A.65.65,0,0,1,158.36,140.26Zm2.28,2.39a.26.26,0,0,1-.18,0s0,.05,0,.08l.24.16a.8.8,0,0,0,0-.34S160.65,142.62,160.64,142.65Zm-1.92-23.75.86.26c.41-.09.7-.12.88.08,0,.06,0,.11,0,.16l1.23.36.16,0a.58.58,0,0,0,.17-1.13L156.54,117c.05.11-.16.24-.21.18s0-.17.12-.2l-.65-.2a.33.33,0,0,1-.37-.11l-.86-.27c-.16.16-.36.32-.11,0L150,115c-.12.41-.23.84-.35,1.25l8.45,2.48a.07.07,0,0,1,.1,0l.57.16Zm2.77.34c0,.24-.2.12-.2,0S161.49,119.13,161.49,119.24ZM159.84,118c0,.2-.25.16-.41.21C159.43,118,159.68,118.05,159.84,118Zm-7-1.45c-.1-.1.15-.26.21-.2S152.87,116.61,152.81,116.55Zm.83.42c-.11-.11.15-.26.21-.21S153.69,117,153.64,117Zm14.16,12.36s0,0,0,.06a.15.15,0,0,0,0-.08S167.8,129.32,167.8,129.33ZM173.74,113c-.93-.29-1.9-.57-2.83-.83s-2.82.27-4,.27a20.53,20.53,0,0,1-7.35-1.61c-.65-.24-.92.79-.29,1a14.89,14.89,0,0,0,2.84.33c1.42.24,2.81.51,4.23.79,2.34.48,4.68,1,7.05,1.33A.69.69,0,0,0,173.74,113Zm-.19-14.89c0,.24-.09.37-.33.36a1.83,1.83,0,0,0,0-.33,17.64,17.64,0,0,0-2.13.29c0,.14.05.3.07.45a.94.94,0,0,1-.45.35c.31,0,.63.06,1,.11a.67.67,0,0,1,.06-.12c0-.26-.33-.21-.29-.52.09-.11.13-.25.35-.23A.55.55,0,0,1,172,99c.13.08.16.26.22.41l.53,0c.07-.29-.08-.8.29-.8.19.15.12.54.23.75,0,0-.05,0-.07.08a4.21,4.21,0,0,0,2.44-.48.14.14,0,0,0,0-.21A2.56,2.56,0,0,0,173.55,98.13Zm7.5-16.7a3.16,3.16,0,0,0-1.94-.08.32.32,0,0,1,.07.29c-.12,0-.16.15-.34.12a.28.28,0,0,1-.09-.35l-.47.08c-1.78.22-3.6.61-5.35,1l-2.07.47c-.15.08-.34.11-.34.32s.21.08.34.06c.11.26.43.4.29.75a.17.17,0,0,0,.06.08c.64-.09,1.27-.19,1.91-.26a37.31,37.31,0,0,1,5.16-.45,5.39,5.39,0,0,0,3-.59A.78.78,0,0,0,181.05,81.43Zm-6.72,1.37a.43.43,0,0,1,0-.46.55.55,0,0,1,.52.23C174.83,82.81,174.57,82.79,174.33,82.8Zm-7.67,45.54,0-.07a1,1,0,0,1-.14-.15C166.6,128.41,166.66,128.59,166.66,128.34Zm-2-.48.2-.11a.8.8,0,0,1,.28-.44l-.52-.21C164.57,127.4,164.51,127.73,164.65,127.86Zm-.29.3h0v0S164.37,128.15,164.36,128.16Zm-1-.65c-.32.74.7.12.62.62h0l.25.1h0C164.08,128.12,164.05,127.16,163.35,127.51Zm2.25.88s0,.06,0,.09.09.24.21.27C165.79,128.58,165.76,128.41,165.6,128.39Zm.15-.31a.4.4,0,0,0-.35-.12c0,.06,0,.13,0,.2l0,0C165.67,128.2,165.74,128.16,165.75,128.08Zm-23.26,17.79.16.16a.39.39,0,0,1,.19-.1,1.3,1.3,0,0,1-.08-.17C142.65,145.82,142.54,145.9,142.49,145.87Zm7.38-4a1.73,1.73,0,0,1-.3.16l0,.2h.08a.59.59,0,0,1,0,.33c0,.11,0,.22.05.33h0a.24.24,0,0,1,.2-.13.1.1,0,0,0,.05,0,.57.57,0,0,0-.09-.81Zm.49,10.15s0,.07,0,.1.13.17.18,0l-.14-.15Zm-.1,1.52.09.09a.08.08,0,0,0,0-.09A.08.08,0,0,0,150.26,153.55Zm1.11-18.18a.77.77,0,0,1,.2-.06l-.48-.33a1.09,1.09,0,0,1-.17.13s0,.1,0,.14c.33.16.07.69.14,1.24l.35.23a1.64,1.64,0,0,1,.28-1c.44-.11.46.2.7.3a.81.81,0,0,0,.18-.1l-.27-.18h-.07s0,0,0,0l-.38-.26-.05.09c.09-.14-.64-.16-.41,0C151.21,135.46,151.19,135.41,151.37,135.37Zm1.77,19.38a2.49,2.49,0,0,0-.31-.27h0l-.05,0h0l-.28-.28a1.47,1.47,0,0,0-.5-.17.25.25,0,0,1,0,.12,5.76,5.76,0,0,0-.81-.15.09.09,0,0,0-.06.15h0a.87.87,0,0,1-.38-.33.2.2,0,0,1-.11.17l.84.81.11-.07c0,.06.07.11.1.16l-.05.08.21.2a3.78,3.78,0,0,0,.26.43.64.64,0,0,0,.49.32l.07.07.39-.21h0A.63.63,0,0,0,153.14,154.75Zm-4.69-4.69a1.66,1.66,0,0,0-.22,0,.15.15,0,0,1,.12-.14l-.28-.28a3.49,3.49,0,0,0-.46,0c.06-.37-.19-.42-.2-.21-.39,0-.15-.68-.62-.62,0-.22.08-.3.16-.32l0,0c-.2.12-.5.1-.54-.15a.16.16,0,0,1-.15-.1l-.06,0s0,0,0,0h0c0-.13.08-.13.14-.11a.2.2,0,0,1,.2.09h0l-.81-.82c0,.06,0,.13,0,.23-.35-.76-1.85-.36-2.32-1a.63.63,0,0,1-.37-.22l0,.07,2.64,2.62a3.29,3.29,0,0,0,.71-.44c-.06.4.28.4.41.62a1.21,1.21,0,0,1-.41.52l1.36,1.34a.62.62,0,0,0,.3,0,.3.3,0,0,1-.09.22l.32.32a1.89,1.89,0,0,1,.8.07c0-.24,0-.57.21-.61,0,.25,0,.59.2.62,0-.17,0-.38,0-.55Zm-2.67-1.67h-.41V148h.41Zm1.21,1.5c-.1-.11.15-.27.21-.21S147.05,150,147,149.89Zm1.89,1.6a1.07,1.07,0,0,0-.5-.19.24.24,0,0,1-.35,0c0-.36.23-.43.2-.8-.06.11-.25.09-.38.13,0-.2.25-.16.41-.2,0,0,0,0,0,0s.19.1.22.25a.9.9,0,0,1,.42-.1Zm-6.69-6a.61.61,0,0,1,.27.13s0-.07,0-.13A.4.4,0,0,0,142.19,145.5Zm7.32,7.31.11.11.06,0s.08-.1,0-.15S149.57,152.75,149.51,152.81Zm-7-7v0Zm9.26,7.69a.1.1,0,0,0,0-.14s-.08,0-.13,0Zm-2.27-1a.86.86,0,0,1,0-.15.4.4,0,0,0-.15,0A.22.22,0,0,0,149.46,152.52ZM152,128.8a1,1,0,0,0,.14-.4c-.14.09-.28.14-.31-.06a.21.21,0,0,1,.31-.15l-.79-.42a2.42,2.42,0,0,1-1.42.65l2.27,1.19a.75.75,0,0,1,0-.44h.62c.19.31-.11.55-.17.69l.4.21a.66.66,0,0,0,.15,0,.12.12,0,0,1,0,.09l1.18.62a7.19,7.19,0,0,1,.15-1.27l-1.87-1A.88.88,0,0,1,152,128.8Zm-1.3-.27c0-.64.9-.38,1.1-.11C151.67,128.88,150.88,128.75,150.65,128.53Zm2.57.64c.7-.51-.5.69,0,0Zm2.07,1a5,5,0,0,0-.15,1l.37.19A1.36,1.36,0,0,0,155.29,130.2Zm-.41-.21c.05,0,.27-.08.21-.18l-.05,0C155,129.78,154.79,129.9,154.88,130Zm.79,9.57s0,0,0-.06h-.12Zm-.92-.6.15.1a.48.48,0,0,1,0-.18Zm.72-.65-.05,0-.08.09a.14.14,0,0,0,.13.1,3.07,3.07,0,0,0-.31.17l.6-.1A.7.7,0,0,1,155.47,138.31Zm-2,17.49a.35.35,0,0,0,.05-.08s-.06,0-.09,0A.21.21,0,0,0,153.5,155.8Zm.9-18.57-.29-.21c0,.06.06.14.1.2Zm-.38,1.08c0-.17.22-.21.34-.3l-.11-.1a.12.12,0,0,0-.09.14.91.91,0,0,1-.29,0c0,.09,0,.18-.05.27-.51-.35-.4-.54-.67-.41l1.14.75C154.43,138.43,154.5,138.26,154,138.31Zm2.52.38-.18.07,0,0s0,.05,0,.1a.17.17,0,0,1-.13,0s-.11,0-.15.09,0,0,0,0-.15.27-.21.2,0,0,0,0l-.06,0c.15.07.3.16.31.37a.33.33,0,0,1,0,.33l0,0a4,4,0,0,1,.38-.51,2.31,2.31,0,0,1,.45,0C157,139,156.56,139,156.54,138.69Zm-2.17-1.2s0,0,0,0h.06s0,0,0-.05Zm-30.08,28.1a2.54,2.54,0,0,1-.16.28l.15.37a1.4,1.4,0,0,0,.42-.08.93.93,0,0,1-.21-.61ZM36.64,60h0s0,0,0,0l0,0,.39-.69v-.19c.3-.15.45.08.45.31.29.3-.23.7-.56.76l.55.37a2,2,0,0,1,.39-.2c.28.07,0,.17-.14.37l.36.25c.22-.33.39-.7.81-.82a.49.49,0,0,0-.19-.17,2.21,2.21,0,0,0-.48.57c-.17-.11,0-.3,0-.47l-.09,0a.5.5,0,0,1-.32,0s0,0,0,0l0-.06L37.72,60v-.68s-.06,0-.09,0l0,0-.54-.36c-.11.46-.27.87-.8.92Zm5.58,11.33a.56.56,0,0,0,0-.12.33.33,0,0,1-.06.06Zm-17.3-1.18c0,.1.16.18.19,0s-.15-.21-.19,0Zm0-.89-.31-.12a1.16,1.16,0,0,0-.21.16.41.41,0,0,1,.25.19A3,3,0,0,1,24.94,69.28Zm1.22.55s-.08-.06-.11-.09l-.36-.15a3.92,3.92,0,0,1-.37.34C25.77,70.11,26,70.07,26.16,69.83ZM38.1,59.54l-.14-.1c-.05.05-.08.11,0,.15S38,59.59,38.1,59.54Zm12.32,87a.36.36,0,0,1-.09-.3l-2.22,2.25a1.7,1.7,0,0,1,.1.14.59.59,0,0,1-.2,0l-.87.88,0,.09-.16,0-3.33,3.37a.42.42,0,0,0,.54,0,1,1,0,0,0,0,.65c-.53.34-.7.07-.87-.23l-.54.54s0,0,0,.07a.09.09,0,0,1-.11,0l-.31.31c.14.1.3.13.27-.09a2,2,0,0,1,.87.58l3-2.95c0-.05,0-.09.09-.09l.23-.24c-.2,0-.51-.23-.67-.17a4.85,4.85,0,0,1,.33-1.16c.85.19-.62,1.2.52,1.15h0l.66-.65a1,1,0,0,0,0-.18.78.78,0,0,1,.26-.06l.55-.54h0a1.27,1.27,0,0,0,.2-.83c.16,0,.24.19.25.41l1.34-1.32,0,0,.08,0,1-.95c0-.11-.08-.24-.12-.36.13,0,.2.09.25.23l.46-.45A2.94,2.94,0,0,0,50.42,146.49Zm-5.76,5.62c0-.5,1.18-.53,1.1.13C45.17,152.58,45.06,152.09,44.66,152.11Zm5.42-5.32c-.24,0-.17-.16-.06-.2S50.18,146.76,50.08,146.79ZM36.65,82.25l0,.06c0-.51.43-.58.46-1.06l-.46-.14C36.69,81.5,36.67,81.89,36.65,82.25Zm2.18-21a1.33,1.33,0,0,0,0,.19l1,.68c.1-.09.16-.12.06,0l.16.11h.14c.43-.12.56-.51.81-.8h.09l-.82-.54a.13.13,0,0,0,0,.06c-.32-.23-.51,0-.82-.23-.26.32,0,.5,0,.75C39,61.6,39.1,61.31,38.83,61.27Zm2,.18c.11.11-.14.27-.2.21S40.77,61.4,40.82,61.45ZM39,61a2.17,2.17,0,0,1,.07-.35,1.43,1.43,0,0,0-.16.3S39,61,39,61Zm-.1,7.21-.23-.11a1.58,1.58,0,0,1-.86-.1.5.5,0,0,0-.18.2.36.36,0,0,0-.06.2.38.38,0,0,1,.35-.15C38.07,68.63,38.86,68.46,38.91,68.24ZM27.8,71.58a3.49,3.49,0,0,0,.46-.78s0-.06,0-.08a.76.76,0,0,0-.85.4C27.3,71.39,27.38,71.63,27.8,71.58ZM35,141a1.06,1.06,0,0,0,.11.21.94.94,0,0,1,.54-.36,2.25,2.25,0,0,1-.12-.21Zm-.31-60.49a1.06,1.06,0,0,1-.47-.12c0,.11,0,.09,0-.08a1,1,0,0,0-.32-.32,1.16,1.16,0,0,0-1.14.09.53.53,0,0,0-.11.83l.16.14h0a1,1,0,0,0,.58.23.88.88,0,0,0,.57-.13.63.63,0,0,0,.23-.23c-.1.18.13.11.26.17C34.87,81.3,35.09,80.58,34.66,80.51ZM97.71,178.9a1,1,0,0,1-.24,0,1.39,1.39,0,0,1-.06-.19.26.26,0,0,0-.48-.13,1.78,1.78,0,0,0-.17.27.25.25,0,0,0,0,.14l-.08.09a.78.78,0,0,0,0,1.29c.09.05.11.06.06,0a.58.58,0,0,0,.8,0,.74.74,0,0,0,.27-.52.57.57,0,0,0,.2-.34.13.13,0,0,0-.1.16l-.07,0h0a.8.8,0,0,0-.19-.47.49.49,0,0,1,.39-.38V178C97.53,178.36,97.87,178.43,97.71,178.9ZM36.82,131.61c-.15-.13-.25.22-.53.28a2,2,0,0,0,.77,0A.36.36,0,0,0,36.82,131.61ZM18.73,113.56a.51.51,0,0,0-.14,1l.11,0h0c.25.06.59-.14.55-.43a3.13,3.13,0,0,0,.43,0c.14-.17.3-.33.43-.52s0-.14,0-.22C19.63,113.46,19.18,113.52,18.73,113.56ZM42,154.62l-.42.43.29.17c-.13.57-.54.41-.85.39l-.14.15a0,0,0,0,0,0,0c.16.08-.22.37.22.52a1.71,1.71,0,0,1-.21.26h0a.56.56,0,0,0,.4.17.59.59,0,0,0,.4-.16l.52-.52a.23.23,0,0,0-.12,0c0-.27.18-.32.38-.24l.32-.31A1.73,1.73,0,0,1,42,154.62Zm-.46,1.76c-.33,0-.07-.21.14-.25S41.75,156.33,41.53,156.38Zm-7.7-63.64c-.41.23-1.51-.32-2-.37l-1-.11c-.29,0-.84.08-1.1-.05h0c-.07,0-.13.1-.21.14-.39.28-.3,1,.27,1l.43,0a.6.6,0,0,0-.1.25s0,0,0,0l1.62-.34c.25,0,.58,0,.9,0,0,0,0,0,0-.06a.71.71,0,0,1,.59.16.82.82,0,0,1,.41.25.65.65,0,1,0,.23-.88Zm-10,36.55v0h.27A.37.37,0,0,0,23.81,129.29Zm4.32-16.71c-.33,0-.65,0-1,0a1.36,1.36,0,0,1-.41-.48c-.2.06-.4.12-.59.16-1.6.36-3.28.71-5,1,.2,0,.47,0,.61.13a.55.55,0,0,1,0,.42C23.63,113.47,26.08,113,28.13,112.58Zm1.78,13.06c-1-.06-.67.68-1.47,1-.23.1-.44.17-.67.26a1.64,1.64,0,0,0,.26.33c.19-.1.37-.21.58-.31s.73.16,1.1.06a1.77,1.77,0,0,0,.6-.42A.57.57,0,0,0,29.91,125.64ZM30.17,111a.71.71,0,0,1,.1.53h-.52a1,1,0,0,1-.09.68,8.6,8.6,0,0,0,2.33-.74.19.19,0,0,0,0-.3A3.2,3.2,0,0,0,30.17,111ZM40.92,83.66s0-.07,0-.11c-.25-.38-.28-.41-.2-1,0-.23-.31-.18-.38-.35h0c-.18.28-.16.18-.08,0l-1-.3a2.28,2.28,0,0,0-.2.38c-.28.1-.69.44-1,.2a2.17,2.17,0,0,1,.37-.83l-.85-.25a1.2,1.2,0,0,1,0,1c-.41-.34-.28,0-.82,0l0,0,.72.22.26-.06c0,.06,0,.08,0,.14Zm-.1-.29c0,.25-.41.2-.41,0C40.59,83.24,40.78,83.12,40.82,83.37Zm-.62-.83c.11.11-.15.26-.21.2S40.15,82.48,40.2,82.54Zm-1,.2c.11.11-.15.27-.21.21S39.11,82.69,39.17,82.74ZM52.62,56l.12-.22c.29-.21.17.12,0,.37l.9.91a8.12,8.12,0,0,0,1.24-.66l-.82-.8a1.18,1.18,0,0,1-.68-.14c.05-.2.13-.28.23-.31l-.88-.86-.47.26a2.43,2.43,0,0,0,0,.27l0,0s0,0,0,0a4.63,4.63,0,0,1,0,.76Zm.54-21.67c0-.05-.13-.06-.21,0l.1.15C53.12,34.45,53.17,34.42,53.16,34.35Zm.69.23c0,.17-.13.16-.18.09a.56.56,0,0,0,.1.27c.1-.24.26-.29.4-.4a1.11,1.11,0,0,1-.12-.16.76.76,0,0,0,.18-.13c-.34-.18-.54,0-.56.26C53.73,34.39,53.85,34.49,53.85,34.58ZM51.28,54.66l.18-.06a1,1,0,0,0-.47-.53.93.93,0,0,0-.25,0Zm.31.31v-.1l-.12-.24c-.14,0-.19,0-.19,0Zm-6,17c0-.12,0-.18.11-.21l-.32-.17C45.31,71.78,45.31,71.92,45.58,72ZM48,73l-.21-.11a1.1,1.1,0,0,1,0,.18Zm-1.94-8.2A.83.83,0,0,1,46,65a.8.8,0,0,0,.77.29Zm-2.84,70.4a2.17,2.17,0,0,0,1.06.67.43.43,0,0,0,.52-.29s0-.08,0-.12a2.71,2.71,0,0,0,.4-.36c.31-.37.51-.2.93-.32s.87-.21,1-.7a.16.16,0,0,0-.07-.17.68.68,0,0,0-.78.1.79.79,0,0,0-.25.37c0,.11-.57,0-.73,0-.63,0-1.26.28-1.32.84a1.52,1.52,0,0,1-.7-.05S43.23,135.19,43.25,135.21ZM50.54,53l.2-.13a.62.62,0,0,1-.2-.12A.41.41,0,0,1,50.54,53ZM54.9,65.79h0a0,0,0,0,0,0,0,.46.46,0,0,0,.12-.12s0,0,0,0a0,0,0,0,0,0,0h0l0-.09.44-.54-.7-.56a.75.75,0,0,0,0,.16.41.41,0,0,0-.19,0,.44.44,0,0,0-.52.38.94.94,0,0,0,0,.41.45.45,0,0,0,.07.25h0a.08.08,0,0,0,0,0,.37.37,0,0,0,.18.15.35.35,0,0,0,.23.09h0v0a.25.25,0,0,0,.16-.08ZM46.4,49.67l-.07,0,.73.74a5.67,5.67,0,0,1,1.24-.24c-.18-.09-.24-.21-.21-.35.21.08.28.2.26.35l.18,0-.68-.68c-.16.21-.24.48-.67.42a.36.36,0,0,1-.07-.41c-.15-.16-.08-.38-.17-.56-.17.23-.41.2-.63.23C46.41,49.14,46.47,49.28,46.4,49.67Zm-.69-1c-.11-.08-.18-.17-.13-.28s.2-.36,0-.47a.84.84,0,0,0-.32.7l0,0A1.7,1.7,0,0,1,45.71,48.64Zm-.08-1.21c0-.08-.31-.07-.28.07S45.68,47.58,45.63,47.43Zm-4.27-2.8s.08-.05.1-.09h0c0-.42,0-.77.38-.87,0,.27.36.19.41.41-.26.43-.1.89-.22,1.23l.63.64c0-.32.07-.62.41-.63a3.76,3.76,0,0,1,.75,1.81l.19.18.6-1-1-1c-.21,0-.32,0-.17-.16l-1.82-1.81a.58.58,0,0,0-.8,0,.57.57,0,0,0,0,.8ZM45.7,49a.51.51,0,0,0,.31-.18,1.11,1.11,0,0,0-.24-.16,2.72,2.72,0,0,1-.07.33Zm-.78-.8a1.14,1.14,0,0,0,.33-.54c-1,.07-.31-.57-.28-1.08l-.16-.16a5.55,5.55,0,0,1-.51,1.16ZM42.26,70l-2.48-1.3a.91.91,0,0,1-1,.2,1.28,1.28,0,0,0-.4.37l1.78,1a.48.48,0,0,0,.11-.15l.15.29h0a.84.84,0,0,1,.14-.27c.14,0,.26.24.3.46l.07.08.22.12c.11,0,.27,0,.29,0a.13.13,0,0,1,0,.16l.12.06c.18,0,.34-.06.11.06l.38.2a.1.1,0,0,1,0-.13s.05,0,.07-.06a1,1,0,0,1,0-.5C42.81,70.59,42.22,70.4,42.26,70Zm-2.37-.13c0-.14.26-.15.28-.07S39.91,70,39.89,69.87Zm8.78-19a.56.56,0,0,1,0-.13l-.75,0A5.88,5.88,0,0,0,48.67,50.91Zm-2.61-1.53a.34.34,0,0,1,.17-.24.47.47,0,0,0-.24.16Zm2.2,1.94a1.43,1.43,0,0,0,0,.26l.15.16c.2,0,.53-.35.5,0a.66.66,0,0,1-.1.4l.16.16.08,0a.4.4,0,0,1-.15-.09c.07-.57,1.14-.58.33-1a.8.8,0,0,0,.24-.13l-.22-.22a.57.57,0,0,0-.34.1C49.55,51.15,48.69,51.51,48.26,51.32Zm1.25,1.38a.18.18,0,0,1,.25,0c.09-.11.2.22.37.32-.06-.47,0-.78.41-.83,0,.26.1.33.2.33a1.2,1.2,0,0,0,0-.2L50.46,52a.88.88,0,0,0-.4.57c-.47-.26-.14-.26,0-.46a.64.64,0,0,0-.16-.14h0a.38.38,0,0,0-.41.11C49.42,52.43,49.25,52.57,49.51,52.7ZM36.07,58.76h-.41s0,0,0,0a2.51,2.51,0,0,1-.57-.23h0l-.15-.1a1.67,1.67,0,0,1,.21-.79l-1.1-.73c.15.48-.14.48-.46.87,0-.12,0-.24-.21-.2.47-.21.44-.61.24-1l-.53-.35a1.69,1.69,0,0,1-.12.47.51.51,0,0,1-.14-.64l-.28-.19a1.36,1.36,0,0,1-.2,1c.24,0,.58,0,.62.2-.35,0-.27.16-.16.32l2,1.34a.22.22,0,0,1,.13.1l.52.35a.54.54,0,0,1,.2,0,.66.66,0,0,1,0,.15l.66.44c.15-.37.19-.84.36-1.19A.8.8,0,0,1,36.07,58.76ZM82,175.23s0,0,0-.08l0,.1A0,0,0,0,0,82,175.23Zm.54,2.06c0,.05,0-.24,0,0Zm.8-5a1.65,1.65,0,0,0,0,.38.13.13,0,0,1,.06.1l0,.07a.9.9,0,0,0,.18.38l.12-.6C83.6,172.43,83.51,172.27,83.29,172.3Zm-1,1-.14.75c.48-.12,1-.43,1-.87A1.52,1.52,0,0,1,82.28,173.32ZM53.15,144.68c.16,0,.25.08.32.2l2-2s-.07-.09,0-.12.11,0,.17,0l3.8-3.75c-.34-.33-.67-.66-1-1l-4,4.09c0,.21-.17.34-.41.43l-.25.24c.08.37.4.33.44.77a2.27,2.27,0,0,1-2.05.86l-.63.65a.15.15,0,0,1-.1.09h0l-.24.25a.74.74,0,0,0,.3,0c-.36.29.32.85.3.35.59,0,0,.42.18.73l.19-.18C51.92,145.43,53.05,145.36,53.15,144.68Zm29.41,31.24a.7.7,0,0,1-.47.06h0a.13.13,0,0,0-.23,0l-.08,0-.07.35a1.58,1.58,0,0,1-.33.6.74.74,0,0,0-.16.27c.11-.26-.1.12-.12.17a1,1,0,0,0-.06.79.73.73,0,0,0,1.2.32,1.45,1.45,0,0,0,.17-.26h0s.08-.08.09-.14l.1-.48h-.11a1,1,0,0,0,0-.16s0-.06,0-.09a.51.51,0,0,1,0-.15c0-.1-.07-.24-.12-.37v-.06c.21.29.29.3.41.3l0-.1a.39.39,0,0,1-.17-.13C82.43,176.41,82.68,176.27,82.56,175.92ZM81.2,152.05l-2.45,8.33,1.28-.07,2.41-7.89C82,152.29,81.61,152.19,81.2,152.05Zm-4.12-1.2a.08.08,0,0,1,.09,0l.07-.18-1.15-.47-.19,0-.54,1.33.78-.21c.12.35-.14.49,0,.85,0,.18.25.11.41.1l.55-1.32S77.07,150.87,77.08,150.85Zm.71,12.69a.67.67,0,0,0-.29.39c-.31.26-.35.75-.57,1.09-.4.63.69,1.24,1,.58.21-.48.63-1.12.27-1.6C78.14,163.76,78,163.44,77.79,163.54Zm1.28-.08.17-.57a1.29,1.29,0,0,0-.73.42A2.42,2.42,0,0,1,79.07,163.46Zm-.57,1.3a.39.39,0,0,0,.1-.08.16.16,0,0,0-.16-.06A.59.59,0,0,1,78.5,164.76Zm5.09,4.68a1.7,1.7,0,0,1-.58.14l-.08.42c.41.15.45.6.64.94.26,0,.38-.22.46-.28l.07-.32s0,0,0,0C83.64,170,83.54,170.12,83.59,169.44Zm3.21-126s0-.08.07-.1l-.29-.21c0-.73-.67-.8-.78-1.43a.65.65,0,0,0-.54.25l.36,1.88c.08,0,.21,0,.23,0s-.11.14-.21.12l.45,2.29a.48.48,0,0,0,.29.08v.17l1.14-.22L87,43.48C86.88,43.49,86.81,43.47,86.8,43.43Zm-1,1v-.2c.08,0,.09,0,.1-.1C86.07,44.08,86,44.57,85.78,44.42Zm.81,1c.17.83-.27-.8,0,0Zm-.16-.56c0-.15.27-.16.29-.08S86.45,45,86.43,44.9ZM82.58,171.77v.1c.28.1,1.58.24,1.16-.33C83.58,171.36,82.91,171.61,82.58,171.77Zm4.54-17.84c-.53.16-.76-.2-1-.58h0L86,154a.76.76,0,0,1,.1.22l-.14,0-.24,1.22a5.77,5.77,0,0,1,1,.1c-.28.6-.17.5.13,1.25-.33,0-.59-.16-.91-.19a1.49,1.49,0,0,0-.26-.71l-.18,1a2.49,2.49,0,0,1,.31.87.36.36,0,0,1-.48,0l-.09.46a4.87,4.87,0,0,1,1.28-.21c0,.23-.36.24-.29.51-.52,0-.77,0-1,0l-.1.56a.21.21,0,0,1,.1.4c-.31,0,0-.18-.1-.39l-.55,2.84a1.69,1.69,0,0,1,.1.27,3.68,3.68,0,0,1,1.36-.88l.48-2.39c-.09,0-.23-.12-.2-.18s.17,0,.23.07l.63-3.1c-.18,0-.12-.16,0-.19h.06l.37-1.83L87,153.5C87,153.63,87.07,153.77,87.12,153.93Zm-.85,5.58c-.08.13-.3-.08-.25-.15S86.31,159.44,86.27,159.51Zm.36-1.81c-.41.22-.38-.31-.7-.24C85.87,156.94,86.8,157.06,86.63,157.7ZM90.54,37.85l.16,1.7a3.05,3.05,0,0,0,.42-.31c.19.2.09.48.33.67-.15.37-.45.14-.71.06l0,.4c.14-.08.3-.11.54.18-.19,0-.31.28-.49.35l0,.38c.17.1.32.21.29.37a.67.67,0,0,1-.23.26l0,.25.14.05c.29,0,.31-.22.6-.2s.21-.46.45-.57l-.22-2-.16-.06a.13.13,0,0,1,.15-.07l0-.34a1.7,1.7,0,0,0-.4.49c-.18-.51-.23-.12-.71-.41a1.55,1.55,0,0,1,1.09-.27l-.36-3.36c-.2.11-.4.24-.58.35-.31-.3-.56-1.29-.11-1.55a.58.58,0,0,0,.28-.49.5.5,0,0,1,0-.12,1,1,0,0,0,.08-.45.64.64,0,0,0-.29-.49h0a.08.08,0,0,0-.07,0,.65.65,0,0,0-.7.1,1,1,0,0,0-.14.15.63.63,0,0,0-.17.6c.09.23.46.68.48.9a2.65,2.65,0,0,1-.12,1c0,.09-.08.48,0,.42a.59.59,0,0,0,.42,1,.54.54,0,0,0,.21-.05c.31.1.69.13.76.47C91.37,37.61,90.93,37.71,90.54,37.85ZM91.75,41c-.85.09.78-.36,0,0Zm-.49,117.9s0,.05,0,.07,0,0,0,0l-.17,1.85a.36.36,0,0,1,0-.11c.11-.19.33.45.36.55l.21-.06c.08.65-.55.05-.59-.34l-.44,4.94c.09,0,.06.13,0,.17l-.06.67c.25,0,.17.12,0,.19a.54.54,0,0,0,.32.42c.17-.12.25-.33.51-.63a.62.62,0,0,1,.21.41.5.5,0,0,0,.09-.24L92,164l0,0-.1-.41.19,0,0-.25c-.07,0-.14-.12-.12-.16s.09,0,.14,0l.1-1a2.72,2.72,0,0,0-.66.25c-.29-.51.31-.58.68-.54l.76-7.5c-.43,0-.86-.06-1.29-.11Zm.1,7.54c-.68-.14-.1-.93.39-1C92.09,166.12,91.16,166,91.36,166.48Zm.21-2.41c-.24,0-.17-.17-.06-.2S91.68,164,91.57,164.07Zm-.18-1.45c.66.54-.8-.3,0,0Zm.84-3.22c-.07.13-.29-.08-.25-.15S92.27,159.32,92.23,159.4Zm-.11,1.95c-.08.13-.3-.07-.26-.14S92.16,161.28,92.12,161.35Zm-.25-2.5c-.08.13-.29-.07-.25-.14S91.91,158.78,91.87,158.85ZM86.2,156.1c0-.07-.18-.28-.25-.15S86.13,156.23,86.2,156.1Zm-2,13.55,0-.16C84.15,169.54,84.11,169.62,84.24,169.65Zm-8.89-18.09-.23.55a16.13,16.13,0,0,1,.56,2.23l.23-.53a.29.29,0,0,1,.12-.29l.24-.57C75.52,152.8,75.81,152.32,75.35,151.56ZM85,162.64c.22.07.44.17.65.26l.1-.51C85.45,162.52,85,162.27,85,162.64Zm-.8,2.57a.78.78,0,0,0-.2-.59l-.18.91a.36.36,0,0,1,.28.13c0,.46-.13.42-.38.4L83.32,168c.71-.1.82-.84,1.53-1.32l.43-2.11a2.72,2.72,0,0,1-.73-.29C84.57,164.65,84.71,165.13,84.17,165.21Zm0,.66c.15-.18.3-.34.41-.11A.22.22,0,0,1,84.12,165.87Zm-1.73,6.9c.3-.11.54-.26.11-.25h-.06ZM67.16,157c-.32-.34-.17-.55-.1-.87l-.9,1.71c.09.16.18.39.43.18S66.36,156.49,67.16,157Zm0-10.92-.11-.41c.2.08.4.13.4-.08l-.93-.6L62.9,150.5a.44.44,0,0,1-.25.82l-.09-.31-1,1.5a.49.49,0,0,1,.06.59c-.17.23-.17-.38-.06-.2-.06-.09-.08-.14-.12-.2L60.58,154a3.41,3.41,0,0,0,.46.1c-.23.51.09.82.22,1.19l.31-.47a4.22,4.22,0,0,0-.13-.82c.52.49.38.07.82-.19L64,151.28c-.09-.11-.08-.29.06-.33s.12,0,.14,0l3.32-4.9A.32.32,0,0,0,67.21,146Zm-5.35,6.36c.08-.13.3.08.26.15S61.82,152.46,61.86,152.39Zm2.47-1.95c-.71,0-.29-.4-.21-.8C64.75,149.61,64,150.12,64.33,150.44Zm1.14-3.74.6-.16C66.52,147.05,65.33,147.37,65.47,146.7Zm.29,13.09a.66.66,0,0,0,.27.06h0l-.58-.35A.7.7,0,0,0,65.76,159.79Zm1.39,14.13a.51.51,0,0,0,.34-.21,2.32,2.32,0,0,1-.42-.46c.07-.35.49-.34.81-.35l.09-.23a3.92,3.92,0,0,0-1.21.24A4.23,4.23,0,0,1,67.15,173.92Zm-.65-.52a.28.28,0,0,0,0,.13c.06.07.15.11.19,0S66.59,173.34,66.5,173.4Zm-11.7-9.9a.56.56,0,0,0-.25.18c0-.13,0-.26,0-.37a.1.1,0,0,0-.2,0,4.81,4.81,0,0,1-1.74,2.11c-1,.8.93,2.16,1.36.78,0-.08.07-.19.12-.3h0l.33-.49c0-.14,0-.27.14-.33h.07l.62-.91A.85.85,0,0,1,54.8,163.5Zm.53-1.21c-.11,0-.19.22.05.2S55.57,162.27,55.33,162.29Zm12.78,7-.13.32c.17.08.27.31.53.24A.6.6,0,0,0,68.11,169.31Zm-8-14.63c.06.07.16.13.21,0s-.05-.14-.13-.17Zm-3.93-4.19c.48.06.4.22.46.48l6.3-7.66-.32.09-.11-.4.4-.11.09.35.48-.58-1-.81-1,1.19c.1,0,.24.12.2.17s-.24,0-.24-.11l-6.17,7.65c.09.1.26.12.54.05-.83.08,0,1.12-.73,1.26-.34-.41.23-.9-.23-.79l-.29.37s0,0,0,.06a.61.61,0,0,0,.21.67.29.29,0,0,1-.16,0s0,.06.07.08a.54.54,0,0,0,.37.13.58.58,0,0,0,.44-.21l.82-1A1.42,1.42,0,0,0,56.21,150.49Zm5.24-6.77c-.07.13-.29-.07-.25-.14S61.49,143.65,61.45,143.72Zm-2.09,3.35c-.08.14-.3-.07-.26-.14S59.4,147,59.36,147.07Zm15.53,7.58a.76.76,0,0,0,.6.15l.11-.26a1.71,1.71,0,0,1-.42-.39C75,154.26,75.16,154.58,74.89,154.65Zm-15.15.65a2.62,2.62,0,0,1,.28.58c-.3.14-.52.13-.63-.06l-.17.26c0,.34,0,.71-.18.93-.44.11,0-.36-.18-.39l-2.54,3.84,0,.06-.07,0L56,161s0,0,.06.06l-.13,0-.17.26c.25-.07.51-.16.62,0s-.53.26-.5.56a1.29,1.29,0,0,1,.52.57l.21-.31s0,0,0,0h0l1.22-1.8,0,0c.7-.64-.41-.31-.52-1.15a1.35,1.35,0,0,1,1-.06c-.21.2-.35.56-.14.72L59.44,158a.51.51,0,0,0-.38-.13c0-.34.38-.38.64-.25l.22-.33c-.15-.14-.24-.4-.48-.38a.56.56,0,0,1,.49-.56,1.18,1.18,0,0,1,.32.45l.46-.68a5.09,5.09,0,0,0-.65-1.3Zm-3.14,5.36c.2,0,.22.21.31.35C56.71,161.06,56.69,160.81,56.6,160.66Zm14.57,4c-.63.42-.75-.06-1.11-.11l-.11.26c.29.33.71.44,1,.72l1-2.28s-.06-.05-.1-.05C71.45,163.58,71,163.93,71.17,164.65ZM74,158.33c-.51.2-.88.16-1-.38,0,.28-.49,1.15-.13,1.1-.17.42-.46.28-.57,0l-.36.9H72l.11.4c-.17.09-.28.06-.35,0l-1.15,2.81a1.3,1.3,0,0,0,.21.35c.06-.92,1.39-.35.92-1.32a6.38,6.38,0,0,0,.64,0l.34-.82s-.06-.05-.14,0c0-.28.09-.24.22-.14l.19-.44c-.25,0-.44-.12-.48-.48a1.53,1.53,0,0,0,.87-.47l.32-.76c-.23-.06-.51,0-.57-.43.39.12.48.22.7.13l.25-.59-.11-.41C73.77,157.78,73.93,158.09,74,158.33Zm-2,2.9c-.23-.42.3-.39.23-.71C72.71,160.47,72.41,161.29,72,161.23Zm.42-1.61c.07-.13.29.07.25.14S72.34,159.69,72.38,159.62ZM75.2,155c0,.05,0,.14.14.17l.06-.14C75.33,155,75.25,154.92,75.2,155Zm-6.32,13.05c.15.37.29-.2.45.1,0,.62.07.65.22.78l.46-1.09c-.18.07-.4.16-.59-.14.24-.11.67-.1.76-.28l0,0c0-.07,0-.16-.09-.29C69.52,167.3,68.74,167.42,68.88,168.05ZM74.82,156c-.49.07-.18-.75,0-.85-.1-.22-.23-.06-.2,0a5.8,5.8,0,0,0-.52-.48l-.6,1.46a5.17,5.17,0,0,1,.59.23c.18.72,0,.65.28,1.14l.43-1a.18.18,0,0,1,0-.1l.21-.49C74.91,155.79,74.82,155.72,74.82,156Zm-.71-.24c.08-.13.3.08.25.15S74.07,155.79,74.11,155.72Zm-4.83,13.84.06-.13-.09,0Zm-.78,1.86,0-.1s0,0-.05.05Zm.15-1.81c.09.14.11.39.31.35C68.87,169.82,68.85,169.57,68.65,169.61ZM42.14,137.37a1.52,1.52,0,0,0,.09.25l.82-.54-.84.18a.55.55,0,0,0,.09-.31l0,0c-.28,0-.57.33-.79.49-.51.35-1,.73-1.53,1.08-.86.57-2.67.55-3.08,1.68a.52.52,0,0,0,.35.64c1.19.45,2.41-1.52,3.17-2.07A8,8,0,0,0,42.14,137.37Zm127.13-8.5-.08,0h-.54s0-.09,0-.13l-.51-.22a1.14,1.14,0,0,1-.06.29v0a2.46,2.46,0,0,1-.91-.26h0a8,8,0,0,0,.92.83s0,.06,0,.08l.22.07.22.12a.69.69,0,0,1,0,.21,1.14,1.14,0,0,0,.09-.16.67.67,0,0,1,.11.07l.08.08a.88.88,0,0,0,1,.1C170.4,129.69,170,128.7,169.27,128.87Zm-41.21-88.6c-.1.29-.22.58-.33.87a1,1,0,0,0,0,.46v0l-.38.72a7.47,7.47,0,0,1-.36,1.58l.06,0c-.1.25-.19.5-.3.74,0,0,0,0,0,0a1.24,1.24,0,0,0,.74-.41l.1.07,1.58-3,0,0c.06-.11.11-.23.16-.34l.1-.06,0,0a.62.62,0,0,0,.05-.38s0,0,0,0h0A.73.73,0,0,0,128.06,40.27Zm12.31,8.13c.13-.13.4-.5.44-.52h0a.79.79,0,0,0,0-1.49.57.57,0,0,0-.56,0c-.57.16-.95.75-1.31,1.27a12.36,12.36,0,0,0-.79,1.38l-6.71,8.15,1,.81,7.5-9.31Zm-86.25-.21c.35.5,1,1.21,1.58,1.18l.07.06a.23.23,0,0,0,.34-.09c.08.12.16.25.13.36a.38.38,0,0,0,.17.41c.28.12.43,0,.46-.19h0l0,0c0-.18-.06-.4-.25-.41s-.06,0-.16-.12a3.93,3.93,0,0,1-.26-.8,2.68,2.68,0,0,0-.85-1,.68.68,0,0,0-.36-.27l-.13,0A.67.67,0,0,0,54.12,48.19Z" transform="translate(-18.23 -19.94)" fill="#3b1712"/></svg>